<svg xmlns="http://www.w3.org/2000/svg" width="612" height="135"><path d="M99.311 120.153c-9.53 8.064-20.71 12.096-33.54 12.096-5.04 0-12.554-1.648-22.634-4.856-9.806-3.3-17.229-4.857-22.269-4.857-5.04 0-9.072 2.474-12.28 7.514-2.382-.733-4.215-2.657-5.498-5.682-1.374-2.474-2.107-5.131-2.107-7.697 0-3.025.55-5.773 1.74-8.431 1.1-2.566 2.658-4.857 4.674-6.781 2.016-1.925 4.307-3.483 6.965-4.49 2.657-1.101 5.498-1.559 8.522-1.559 4.674 0 10.264 1.925 16.954 5.683 1.374.917 3.024 1.925 4.856 3.116 1.925 1.191 3.85 2.566 6.049 4.215 3.665 2.475 6.414 4.49 8.43 6.049 1.925 1.465 3.208 2.382 3.666 2.657 5.407 3.3 9.897 4.857 13.38 4.857 2.29 0 4.398-.367 6.414-1.1 2.016-.734 3.757-1.833 5.315-3.208 1.466-1.375 2.75-3.024 3.666-4.765.916-1.833 1.374-3.758 1.374-5.957 0-9.897-7.514-16.862-22.451-20.894-7.056-1.74-14.021-3.48-20.894-5.315-6.873-1.74-13.93-3.482-20.894-5.315-14.937-6.416-22.451-17.595-22.451-33.54 0-12.096 4.857-21.81 14.662-29.233 8.889-6.69 19.61-9.988 32.074-9.988 2.932 0 5.59.091 8.156.275 2.565.183 5.04.55 7.422 1.008 6.048 1.008 10.814 1.832 14.204 2.382 3.483.55 5.774.825 7.057.825h2.29c.734 0 1.375-.092 1.925-.183 1.283-.092 2.474-.275 3.666-.367a17.698 17.698 0 0 0 3.299-.55c4.49-.733 6.873-1.1 6.964-1.1 1.008 0 1.466.276 1.466.917 0 7.148-2.382 13.746-7.147 19.61-5.132 6.416-11.18 9.623-18.145 9.623-8.156 0-13.288-1.65-15.487-4.949V27.69c0-10.722-6.323-16.037-19.061-16.037-5.04 0-9.347 1.008-13.013 3.024-4.49 2.475-6.781 6.049-6.781 10.539 0 8.34 7.331 14.296 21.902 17.87 24.742 6.048 38.305 9.713 40.687 10.905 14.571 6.78 21.902 18.327 21.902 34.548.275 12.647-4.857 23.184-15.029 31.615zm70.654-20.069c-4.765 3.117-10.355 4.674-16.678 4.674-9.53 0-17.228-2.841-23.185-8.522-5.865-5.682-8.797-13.287-8.797-22.727 0-8.89 2.84-16.404 8.522-22.543 5.774-6.232 13.013-9.44 21.719-9.44 2.474 0 6.048.459 10.905 1.467 2.474.366 4.582.733 6.415 1.008 1.832.275 3.39.366 4.581.366 1.1 0 2.475-.458 4.033-1.374.366 1.833.641 3.024.641 3.665 0 3.758-1.466 6.873-4.399 9.44-2.84 2.565-6.14 3.94-9.805 3.94-3.299 0-6.415-1.008-9.164-2.933 1.65-1.832 2.474-3.299 2.474-4.49 0-1.283-.55-2.383-1.65-3.299-1.099-.916-2.382-1.375-3.756-1.375-6.14 0-9.164 9.348-9.164 28.042 0 5.955.916 10.905 2.657 14.754 2.475 5.408 6.14 8.156 11.089 8.156 3.848 0 6.78-1.375 8.797-4.124 1.833-2.383 2.658-5.498 2.658-9.53 0-1.742-.367-3.3-1.009-4.766a26.737 26.737 0 0 1-.824-1.374c-.367-.642-1.008-1.466-1.833-2.566 1.741-1.008 3.39-1.466 5.132-1.466 2.84 0 5.132 1.1 6.873 3.299 1.466 2.107 2.199 4.582 2.199 7.422-.092 6.05-2.84 10.815-8.43 14.296zm50.585 2.934c1.65-2.842 2.474-5.957 2.474-9.256V58.206c0-1.924-.55-3.665-1.65-5.132-1.099-1.466-2.657-2.199-4.581-2.199-3.39 0-6.048 1.833-7.79 5.59-1.282 2.84-1.924 6.231-1.924 10.264l.092 26.575c0 1.924.55 4.307 1.558 6.964.091.184.183.368.274.643.092.275.184.55.367 1.008l.367 1.1H184.26c.183-1.008.733-2.475 1.833-4.49.916-1.924 1.374-3.573 1.374-5.04V33.74c0-3.116-.916-6.873-2.84-11.272h22.818v27.492c5.406-5.224 10.813-7.79 16.128-7.79 5.957 0 10.63 1.558 14.02 4.766 3.391 3.207 5.133 7.697 5.133 13.654v33.174c0 1.374.366 3.116 1.19 5.224.917 2.29 1.376 3.573 1.376 3.756v.091l-.092.093H220.55zm73.77-.092h-3.758c-.091-1.191-.091-3.3 0-6.323-1.832 1.282-3.39 2.383-4.857 3.299-1.466.917-2.749 1.558-3.848 2.108-2.933 1.1-6.232 1.74-9.99 1.74-2.29 0-4.49-.55-6.597-1.557-7.056-3.481-10.63-9.347-10.63-17.41V54.174c0-5.223-.917-9.072-2.658-11.638h22.543v1.466l-.091 4.49v37.39c0 2.382.55 4.398 1.741 6.23 1.191 1.925 3.024 2.933 5.407 2.933 2.382 0 4.49-1.1 6.323-3.299 1.924-2.2 2.932-4.49 2.932-6.873V53.99c0-4.949-.916-8.706-2.84-11.364h23.184v50.677c0 4.032 1.1 7.24 3.3 9.623zm26.3.092c2.016-3.117 3.024-6.415 3.024-9.99V33.554c0-4.49-1.19-8.247-3.573-11.363h23.551c-.183.641-.274 1.1-.274 1.374v69.463c0 .366.458 1.924 1.374 4.765.825 2.658 1.465 4.399 1.832 5.133zm32.257 0c2.016-3.117 3.025-6.415 3.025-9.99V54.173c0-1.008-.46-2.933-1.374-5.773-.825-2.566-1.558-4.49-2.2-5.59h23.551a2.586 2.586 0 0 0-.366 1.374l.091 48.844c0-.275.092.366.367 1.833.275 1.65 1.01 4.398 2.2 8.156h-25.294zm19.244-65.43c-1.833 1.924-4.032 2.932-6.506 2.932-2.566 0-4.857-.917-6.873-2.841-1.925-1.833-2.934-4.124-2.934-6.69 0-2.566.826-4.857 2.567-6.873 1.74-1.924 3.848-2.932 6.322-2.932 2.842 0 5.225.916 7.24 2.749 2.016 1.833 2.933 4.124 2.933 6.873 0 2.565-.916 4.856-2.749 6.781zm61.673 62.496c-4.766 3.117-10.355 4.674-16.68 4.674-9.53 0-17.226-2.841-23.184-8.522-5.864-5.682-8.797-13.287-8.797-22.727 0-8.89 2.842-16.404 8.522-22.543 5.774-6.232 13.013-9.44 21.719-9.44 2.475 0 6.048.459 10.905 1.467 2.474.366 4.582.733 6.415 1.008 1.832.275 3.391.366 4.582.366 1.1 0 2.474-.458 4.032-1.374.366 1.833.641 3.024.641 3.665 0 3.758-1.465 6.873-4.399 9.44-2.84 2.565-6.14 3.94-9.805 3.94-3.3 0-6.415-1.008-9.164-2.933 1.65-1.832 2.474-3.299 2.474-4.49 0-1.283-.55-2.383-1.65-3.299-1.099-.916-2.382-1.375-3.755-1.375-6.14 0-9.164 9.348-9.164 28.042 0 5.955.916 10.905 2.657 14.754 2.475 5.408 6.14 8.156 11.089 8.156 3.847 0 6.781-1.375 8.796-4.124 1.833-2.383 2.659-5.498 2.659-9.53 0-1.742-.368-3.3-1.01-4.766a26.732 26.732 0 0 1-.824-1.374c-.367-.64-1.01-1.466-1.833-2.566 1.741-1.008 3.392-1.466 5.132-1.466 2.842 0 5.132 1.1 6.873 3.299 1.466 2.107 2.199 4.582 2.199 7.422.001 6.05-2.748 10.815-8.43 14.296zm50.677 2.934c1.648-2.842 2.474-5.957 2.474-9.256V58.206c0-1.924-.55-3.665-1.65-5.132-1.1-1.466-2.657-2.199-4.581-2.199-3.391 0-6.049 1.833-7.79 5.59-1.283 2.84-1.924 6.231-1.924 10.264l.091 26.575c0 1.924.55 4.307 1.557 6.964.093.184.185.368.276.643.092.275.183.55.367 1.008l.366 1.1h-25.475c.183-1.008.733-2.475 1.832-4.49.917-1.924 1.374-3.573 1.374-5.04V33.74c0-3.116-.917-6.873-2.84-11.272h22.817v27.492c5.407-5.224 10.814-7.79 16.129-7.79 5.956 0 10.63 1.558 14.02 4.766 3.392 3.207 5.132 7.697 5.132 13.654v33.174c0 1.374.368 3.116 1.192 5.224.916 2.29 1.374 3.573 1.374 3.756v.091l-.093.093h-24.65v.089z" fill="#dfd9a6"/><path d="M115.532 114.013h1.924v6.048h9.072v-6.048h1.925v15.396h-1.925v-7.515h-9.072v7.515h-1.924zm16.953 3.484h1.924V129.5h-1.924zm5.498 8.889c1.741 1.1 3.757 1.74 5.498 1.74 2.2 0 3.574-1.008 3.574-2.29 0-1.375-1.19-2.016-3.757-2.016-3.665-.092-5.681-.551-5.681-3.117 0-1.925 1.832-3.39 4.948-3.39 2.016 0 3.94.55 5.773 1.74l-.916 1.557c-1.558-1.008-3.299-1.557-4.857-1.557-1.924 0-3.024.734-3.024 1.74 0 1.101 1.191 1.467 3.757 1.467 3.85 0 5.773 1.283 5.773 3.849 0 2.107-2.016 3.939-5.315 3.939-2.29 0-4.582-.642-6.598-1.923zm17.137-7.24h-5.04v-1.65h11.913v1.65h-5.04v10.264h-1.833zm7.514 4.399c0-3.574 2.933-6.323 7.24-6.323 4.398 0 7.33 2.749 7.33 6.323 0 3.573-2.932 6.322-7.33 6.322-4.4-.092-7.24-2.841-7.24-6.322zm12.646 0c0-2.567-2.107-4.582-5.406-4.582-3.3 0-5.407 2.015-5.407 4.582 0 2.566 2.108 4.582 5.407 4.582 3.299-.093 5.406-2.108 5.406-4.582zm6.598 5.864h-1.832v-11.913h8.155c2.383 0 3.85 1.19 3.85 3.299 0 1.649-1.1 3.025-2.933 3.3l3.299 5.223H190.4l-3.39-5.223h-5.224v5.315h.091zm6.415-6.873c1.283 0 2.016-.55 2.016-1.65 0-1.008-.641-1.557-2.016-1.557h-6.323v3.208h6.323zm6.965-5.04h1.924v12.005h-1.924zm11.913 12.28c-4.216 0-7.24-2.658-7.24-6.324 0-3.573 2.933-6.322 7.24-6.322 2.657 0 4.857 1.008 6.14 2.84l-1.467 1.009c-1.008-1.374-2.657-2.108-4.582-2.108-3.115 0-5.315 2.016-5.315 4.582 0 2.567 2.2 4.582 5.315 4.582 2.108 0 3.758-.825 4.949-2.566l1.466 1.01c-1.375 2.198-3.665 3.296-6.506 3.296zm33.173-4.125c-1.466 2.659-3.94 4.124-7.056 4.124-4.582 0-7.973-3.39-7.973-8.063s3.39-8.064 7.973-8.064c2.84 0 5.315 1.283 6.781 3.574l-1.558 1.1c-1.008-1.833-2.932-2.933-5.132-2.933-3.39 0-5.956 2.657-5.956 6.323 0 3.664 2.566 6.23 5.956 6.23 2.383 0 4.308-1.19 5.499-3.48zm2.658-8.154h11.18v1.74h-9.348v2.933h6.14v1.741h-6.14v3.756h9.806v1.742h-11.638zm15.762 11.912h-1.833v-11.913h8.156c2.382 0 3.848 1.19 3.848 3.299 0 1.649-1.1 3.025-2.932 3.3l3.299 5.223h-2.016l-3.39-5.223h-5.224v5.315h.092zm6.414-6.873c1.283 0 2.016-.55 2.016-1.65 0-1.008-.641-1.557-2.016-1.557h-6.323v3.208h6.323zm10.264-3.39h-5.04v-1.65h11.913v1.65h-5.04v10.264h-1.833zm8.797-1.65h1.925v12.005h-1.925zm7.423 11.913h-1.833v-11.913h10.997v1.74h-9.164v2.933h5.957v1.741h-5.957zm11.272-11.912h1.924V129.5h-1.924zm12.004 12.278c-4.215 0-7.24-2.657-7.24-6.323 0-3.573 2.933-6.322 7.24-6.322 2.658 0 4.857 1.008 6.14 2.84l-1.466 1.009c-1.01-1.374-2.658-2.108-4.582-2.108-3.117 0-5.316 2.016-5.316 4.582 0 2.567 2.2 4.582 5.316 4.582 2.108 0 3.756-.825 4.948-2.566l1.466 1.01c-1.466 2.198-3.756 3.296-6.506 3.296zm13.196-12.278h1.192l6.14 11.913h-2.017l-1.557-3.024h-6.324l-1.556 3.024h-1.925zm2.933 7.33l-2.291-4.582-2.383 4.582zm7.606-5.68h-5.04v-1.65h11.913v1.65h-5.04v10.263h-1.833zm8.706-1.65h11.18v1.74h-9.348v2.933h6.14v1.741h-6.14v3.756h9.806v1.742h-11.638zm37.938 8.154c-1.465 2.659-3.94 4.124-7.056 4.124-4.582 0-7.973-3.39-7.973-8.063s3.391-8.064 7.973-8.064c2.842 0 5.316 1.283 6.781 3.574l-1.557 1.1c-1.009-1.833-2.933-2.933-5.132-2.933-3.391 0-5.956 2.657-5.956 6.323 0 3.664 2.566 6.23 5.956 6.23 2.382 0 4.307-1.19 5.499-3.48zm1.925-2.106c0-3.574 2.932-6.323 7.24-6.323 4.398 0 7.331 2.749 7.331 6.323 0 3.573-2.933 6.322-7.332 6.322-4.307-.092-7.24-2.841-7.24-6.322zm12.737 0c0-2.567-2.107-4.582-5.407-4.582s-5.407 2.015-5.407 4.582c0 2.566 2.108 4.582 5.407 4.582 3.3-.093 5.407-2.108 5.407-4.582zm4.674-6.048h1.833v10.172h8.888v1.74h-10.72zm12.738 0h1.833v10.172h8.889v1.74H417.39zm12.738 0h11.18v1.74h-9.347v2.933h6.138v1.741h-6.138v3.756h9.805v1.742h-11.638zm19.977 12.278c-4.215 0-7.24-2.657-7.24-6.323 0-3.573 2.933-6.322 7.24-6.322 2.658 0 4.857 1.008 6.139 2.84l-1.465 1.009c-1.01-1.374-2.658-2.108-4.582-2.108-3.117 0-5.316 2.016-5.316 4.582 0 2.567 2.199 4.582 5.316 4.582 2.107 0 3.756-.825 4.948-2.566l1.465 1.01c-1.373 2.198-3.664 3.296-6.505 3.296zm12.555-10.629h-5.04v-1.65h11.913v1.65h-5.04v10.264h-1.833zm8.705-1.65h1.925v12.005h-1.925zm4.766 6.049c0-3.574 2.932-6.323 7.24-6.323 4.398 0 7.33 2.749 7.33 6.323 0 3.573-2.932 6.322-7.33 6.322-4.308-.092-7.24-2.841-7.24-6.322zm12.737 0c0-2.567-2.107-4.582-5.407-4.582s-5.407 2.015-5.407 4.582c0 2.566 2.108 4.582 5.407 4.582 3.3-.093 5.407-2.108 5.407-4.582zm4.766-6.048h1.008l7.606 8.339v-8.34h1.833v11.914h-1.009l-7.607-8.34v8.34h-1.831z" fill="#fff"/><path d="M601.494 124.735h.458s-.091-.367-.091-.275c-.092-.182-.367.184-.367.275zm-2.566 0v-.367c-.183 0-.368.184-.46.367.093 0 .185-.09.46 0zm-8.706-.365c-.458.183-.458-.092-.458.366 0 0 .367-.091.367-.183-.275.365.091.182.091-.183zm-43.895.365c.092 0 .458.092.458-.092-.275-.091-.366-.183-.183-.274-.183 0-.183.091-.366 0 0 .091.091.183.183.274 0 .001-.092.001-.092.092zm31.799-2.108c-.093.275.366-.091.092.184.366.091.458.55.55.734.183.458.458.183.55.183.457.183-.55-1.1-.642-1.1-.092-.184-.367-.366-.55 0zm-38.03-1.098c-.184 0-.55 0-.367-.368-1.1.093.275.826.367.368zm35.006-1.193c-.183.367-.092.642.091.918.275-.276.184-.826-.091-.918zm-20.16 0c-.092.184-.184.184-.459.184 0 .091.092.183.183.275-.366.091-.275-.092-.458.091-.091.092-.275 0-.366.092.091-.092.641.367.733.183.183-.183.275-.458.458-.458-.092-.183.091-.275-.092-.367zm50.4-2.382c.092 0 .092 0 .184.091-.55.275-.55.825-.458 1.375.091 0 .183-.092.367-.092-.092.001.366-1.831-.092-1.374zm-33.081-1.741c-.641.091-.183.55 0 .459-.275-.093 0-.368 0-.46zm-13.38.459c.276 0 .367-.093.367-.368-.366 0-.458.092-.366.368zm-22.634-.184c.091-.275 0-1.374-.458-1.009 0-.09.091.825.458 1.009zm69.37-3.298c.092-.275-.092-1.008-.459-1.008-.366.641.275 1.281.367 1.923.55-.458.001-.55.093-.915zm-55.35.365c-.183 0-.458-.183-.64-.183 0 .275.457.458.64.183zm-1.19-.824c-.184 0-.55-.183-.55 0 .274 0 .366.459.916.459-.183-.092-.458-.184-.367-.459zm-4.674-7.147c-.275.183-.184 1.19.091 1.19-.091.183-.275.55.092.734.55-.46-.092-1.466-.183-1.924zm26.483 1.74c.643.184.368-.367.368-.459-.276.092-.46 0-.368.459zm-36.655-6.506c.091-.276.184.184.275.184.092-.184 0-.184.092-.367 0 0-.642 0-.367.183zm36.655-2.107c0-.184.092-.826-.366-.367.091-.093.275.367.366.367zm-33.356-1.65c-.092.092-.092.275-.275.367.091 0 .183.091.366.091-.091-.092.092-.458-.091-.458zm9.714-1.742c-.184.091-.275.183-.459.366.092.092.184.184.275.184-.091-.184.184-.092.275-.184.092-.55-.641.368-.091-.366zm.55-.092c.091-.275-.642-.183-.459.092.367.091.275-.275.458-.092zm1.832-1.558c-.458-.091-.091-.091-.458.276.092 0 .183 0 .275-.091-.092-.092.183.091.183-.185zm14.388-.091c.091-.092.184-.092.184 0-.093-.367-.093-.642-.093-.825-.183 0-.183.092-.366 0 .183.367-.275.092-.367.367.275.183.458.55.642.458zm-26.76-.367c-.09 0-.642 0-.458.367h.367c-.183-.275.092-.183.092-.367zm13.563-.55c.184 0 .092.275.275.275.092-.275.275 0 .367-.183-.183 0-.55-.457-.642-.092zm3.85-1.098c.09 0 .09 0 .183-.092-.275-.092-.642.183-.642.458.183 0 .367-.183.458 0 .092-.183.092-.275 0-.366zm3.207-.092c0-.184-.092-.184-.184 0-.276-.184-.642-.092-.917.092.275.091.641.091.917.275 0-.184 0-.275.184-.367zm-18.695-1.191c-.276 0-.367.091-.367.366.276 0 .459-.092.367-.366zm-.733-2.109h.275c-.091-.366.275-.275.46-.458-.46-.274-.552.276-.735.458zm.917-.915c.091 0 .275 0 .183-.092-.092 0-.734 0-.46.458.093.092.277-.275.277-.366zm3.115-.275c0-.184-.091-.276-.183-.46-.092.276-.367.368-.367.643.092 0 .275 0 .367-.091-.367.091.092 0 .183-.092zm9.256-2.475c-.367.184-.733 0-.917.459.55.091.734-.275.917-.46zm-9.439.184c-.092 0 .183-.276.183-.368-.55 0-.275.46-.183.368zm4.582-.643c-.367-.091-.367 0-.275.275-.458 0 .092.184.183 0-.183 0 .092-.091.092-.275zm-3.207-.275c0-.091 0-.274-.091-.366-.184.092-.368.183-.46.366zm7.697-1.74c-.183-.092-.826 0-.733.183.275 0 .55.092.733-.184zm-5.315-2.292c-.367.184-.367.184-.734.46.368-.184.643.091.734-.46zm-5.773-6.506c.092-.275 0-.458-.092-.642l-.275.55c.184 0 .275 0 .367.092zm7.88-8.247c-.274 0-.457 1.283-.64 1.558.274-.092 1.19-1.466.64-1.558zm.184-.091c0-.092-.092-.55.183-.367-.275-.55.092-1.283 0-1.832-.916 0-.274 1.832-.183 2.199zm-2.657-1.742c-.459-.092-.642.366-.367.641 0-.182.458-.182.367-.641zm-2.475.642c0 .092.459-.55.092-.458 0 .183-.275.183-.092.458zm-.733-2.842c-.366 0-.275.367-.091.55.091-.09.091-.366.091-.55zm6.14-3.94c0 .55.183.826.367 1.375 0-.183.091-1.466-.367-1.374zm-16.587-.642c0-.366.184-.641-.091-.916-.183.276-.183.733.091.916zm10.63-3.114c.092 0 .184.091.276.091 0-.091.091-.275.183-.275.091-.091-.367-.091-.458-.091 0 .091.091.183.183.275-.092-.092-.092-.092-.183 0zm-1.924-1.1c0-.367-.55-.183-.825-.092.184.184.459-.092.825.092zm1.283-1.742c-.091-.459-1.191 0-1.009-.459 0 0-.458.275-.458.367.366 0 .183.183.458 0v.367c.55.184.643-.275 1.01-.275zm43.712 64.331v-.274c-.367.183-.092.274 0 .274zm-61.49-10.081c-.458 0-.091 1.1 0 1.466.092.55.275 1.19.458 1.741l1.101 3.3c.367 1.19.916 2.199 1.282 3.3.183.458.367 1.281.826 1.556.641.367 1.373 1.925 2.016 2.566.183.275.55.826.641.734-.091.275-.091.55.092.734.183.274.55.366.916.458.551.275.459.55.734 1.009.367.733 1.009 1.1 1.649 1.74 0-.092 0-.092.092-.183-.092.275.55.091.274.366.092 0 .184-.091.276-.183.184.55 1.008.55.459 1.1.458.184.733.642 1.19.825.091.092 1.009.092.734.459.367 0 1.19 0 1.19.459a6.614 6.614 0 0 1 1.833.825c.916.55 2.2.55 3.3.824 2.657.735 5.407 1.01 8.155 1.283a22.252 22.252 0 0 0 7.79-.55c2.199-.55 3.94-1.466 5.956-2.29 1.558-.643 2.382 1.465 3.94 1.373 1.19-.092 2.108-1.374 3.208-.458 2.566 2.2 6.323 2.382 9.622 2.2 1.009-.092 3.3-.276 2.382-1.925-.275-.55-1.19-.917-.916-1.467.275-.55.458-1.281 1.1-1.556 2.474 2.016 4.398 4.398 7.79 4.857 2.108.274 4.214.183 6.23 0 1.283-.092 2.566-.275 3.758-.825 1.374-.643 2.29-1.833 3.299-2.934 1.1-1.19 2.842-2.29 3.208-4.03.825-3.666 1.19-7.791-.917-11.09-.55-.825-1.008-1.649-1.832-2.198-.643-.459-1.466-.459-2.108-.918-.55-.458-1.374-.55-2.107-.55-.735 0-1.283.367-2.017.367-.091.366-.091.183-.641.183-.46 0-.826.183-1.191.46-.733.458-1.19 1.19-1.374 2.014-.276 1.833 1.1 3.026 1.282 4.675-.366 0-.641.183-.916.458 0-.183-1.101-.366-1.375-.366-.733-.092-1.374 0-2.108.091-1.648.184-3.299-.091-4.673-.917-1.557-.917-2.841-2.474-4.124-3.756-.55-.551-1.19-1.101-1.557-1.833-.275-.734-1.1-1.191-1.558-1.833-1.008-1.374-2.199-2.657-3.299-3.574-.825-1.557-2.107-2.749-3.391-3.848-.642-.55-1.374-1.1-1.925-1.74-.275-.276-.641-.825-1.008-.825-.366 0-1.65-1.742-1.74-1.742-.276-.091-.184.092-.368.184-.458-.733-1.19-1.375-2.016-1.375-.55-1.1-1.832-1.373-2.932-1.648-.643-.184-.46-.276-.917-.368-.459-.092.091-.367-.459-.367h-.458c-.275 0-1.1 0-.917-.458-.55-.275-1.19-.091-1.74-.275.366 0-.092-.183 0-.275-.092.367-.551-.274-.826-.274-.275-.092-.642 0-.917 0s-.55 0-.824-.092c-.46-.275-.093.183-.551.092-.184 0-.642-.275-.733-.459.091 0 .458-.276.55-.367.734.183 1.557 0 2.382.091.826 0 .183-.916.918-1.19.091-.825.366-1.558.733-2.383.366-.641.275-.825 0-1.466-.092-.275-.184-.55-.092-.825.092-.458.55-.825.825-1.19-.092.458.55-.46.55-.46.184-.366.459-.64.642-1.007.275-.46.642-1.466 1.282-1.558-.55 0-.367-1.1.184-1.008.091-.643-.092-1.191-.092-2.016 0-.458.184-.367-.09-.642-.185-.274-.369-.55-.46-.916-.092-.183-.275-.458-.183-.733.183-.55-.092-.458-.55-.825.091.092-.184-.275-.458-.091.091-.459-1.192-.275-1.467-.459h.458c0-.091-.916-.091-.458.275-.183.092-.733-.183-.733-.091.275.091-.366.091-.366.091 0 .092.275 0 .366.092-.366 0-.091.367.458 0-.091 0-.275 0-.366-.092.458.092.825.092 1.282.092-.184.092.091.733.184.275 0 .641.458 1.558.916 2.108.092 1.008-.091 2.016-.274 3.024-.275 1.282-1.375 2.382-2.291 3.207-.092-.458-.275.275-.459.367-.459.091-.734.274-1.191.458.275 0 .092.183-.092.091 0 .092.184.918.459.46 0 .458.55.641.55 1.008.092.458.367.366 0 .733-.184.183-.275.367-.184.55-.091 0-.183-.09-.275-.09 0 .09-.091.457.092.457.091-.091.183-.091.275-.091-.184.183.184.55-.275.458 0 0-.367.458-.092.458-.458.092-.824 1.924-.824 1.833 0-.092 0-.183.091-.183 0 .183-.641-.092-.825.091 0-.091.092-.091.092-.183-.275.366-1.191.366-1.01-.092-.366 0-.457.367-.732.458.091 0 .091.092 0 .092-.092-.366-.367-1.008-.092-1.466-.091 0-.183 0-.275-.092.092 1.192-1.374 1.833-2.2 1.741-.457-.091-.825.459-1.282.275-.275-.091-.642.092-.916.184.091 0 .183 0 .274.091-.733-.183-1.374.092-1.832.643.091-.184.275-.368-.092-.184 0-.092.092-.184.092-.276-.184.092-.459-.091-.55.092.183 0 .366.092.458.368-.458 0 0-.368-.458.091-.183.275-.55.092-.825.367-.276.275-1.833.641-1.375.825-.916 0-1.282.458-2.016 1.009-.274.183-.274.366-.458.55-.091-.092-.55-.184-.275-.367-.367 0-.55.275-1.009.183-.091.55-.183 1.282-1.1.825-.917-.458-.183.641-.091.367.183.183.092.642 0 .825-.183.642.092.092-.275.459.183.183.183.275-.183.275-.092.091-.276.183-.368.274.092-.55-.183-1.19-.458-1.65 0 .184-.092.184-.183.093.091.459-.367.367-.184.642 0 .092.275.458.092.55.367 0 .092.916.367.733-.275.367-.275.734-.734.918 0-.275-.275-.735-.55-.46.184 0 .092.918.092 1.283-.275.092 0-.275-.275-.275-.091.642-.459.825-.459 1.282 0 .276-.275.368-.55.46 0 .274-.091.458-.183.64-.183.276-.458.092-.55.642-.092.55-.183 1.101-.092 1.558-.091 0-.091-.091-.183-.091 0 .183-.183 1.19-.55 1.465-.459.367-.276 1.283-.642 1.74.091 0 .091 0 .183.093-1.74.183.092 1.374-.458 2.107-.458.458-.367.734.183 1.01-.183.458 0 1.007-.183 1.464.275 0 .55 2.291.55 2.75 0 .459-.184.642 0 1.009.183.366.459.733.642 1.1.092.183.184 1.466.458 1.1 0 .733 1.008.917.917 1.741 0 .459.458.275.641.917 0 .183.46.366.643.183-.183.183.275.458.275.641 0-.366.183.092.275.092-.184 0 .641 1.191 1.191.918.183.274 1.008 1.832 1.373 1.281.092.643.275.551.734.551.184 0 .642.184.917.55.092.092.916.642.733.55.918.367 1.741.641 2.75.917.917.275 1.832.642 2.841.734.733.091 1.374.274 2.108.366.367 0 .733 0 1.008.183 0-.275.458-.275.641-.275.734.092.826.092 1.375 0 .458-.091 1.008-.091 1.465-.091 0-.275.46-.275.551-.275.183 0 .642-.092.642-.367.366.092.733 0 1.1-.183.459-.276 1.374-.367 1.557-.826 0 .184.367.092.458 0-.091.092 0 .184.092.275 0 0 .275-.733.366-.733.276-.458.276-.366.735-.458.916-.092.641-.734 1.373-1.283.368-.275.826-.55 1.1-.916.276-.275.093-.367.184-.55.275-.276.825-.643 1.008-.918.184-.366.184-.824.46-1.1.366-.55.091-.091.091-.55.458.092.825-.917 1.008-1.465.092-.092.642-1.192.458-1.192.55 0 0-.458.367-.641.091.091.368.55.091.641v-.275.367c-.274-.183-.091.091-.091.275-.183-.092-.367.092-.183.276-.367-.183-.367.641-.184.275 0 .366-.733 1.373-.458 1.832-.183.092-.275.092-.458 0 0 .092.092.184.183.275-.55 0-.091.825-.458 1.374-.183.275-.275-.092-.55.366-.093.276-.184.46-.276.735-.091-.092-.275.275-.458.458-.733.641-1.1 1.741-2.016 2.108-.367.091-.733.458-.916.824-.184.275-.55.184-.642.55 0 0-2.016 1.01-2.29.918-.276.733-2.476.641-2.476 1.008 0 .091-1.1-.092-1.282.183-.367.46-1.01.642-1.558.642-.458 0-.916-.367-1.19.092-.458 0-.918-.092-1.375-.092-.825.092-.366.184-.55-.183 0 0-.275.183-.275.275 0-.091-.183-.183-.091-.275-.275.458-1.375.275-1.741.275-.184 0-1.375-.826-1.008-.091-.826 0-1.65-.551-2.2-.184 0-.276-.642-.091-.642-.367 0-.367 0-.55.091-.825-.824.091-.458 1.008-1.465.55-.642-.275-1.1-.55-1.833-.642.092 0 .184 0 .275-.091-.366-.092-.275-.367-.733-.367-.183 0-.366 0-.091.183-.643.092-.643-.917-1.283-.641.091-.46-.55-.643-.825-.643-.643-.183-.092.092-.551-.366-.183-.184-.275-.184-.458 0-.092-.275-.367-.184-.183-.458-1.1 0-1.19-1.742-2.475-1.467.367-.091-.458-1.008-.458-1.008-.183-.458.092-.641-.458-.733-.092 0-.643-.184-.275-.367-1.01-.092-1.833-2.658-1.1-2.475.64.184.824.826 1.282 1.375.275.458.733.733 1.19 1.008-.091 0-.091 0-.183.092.367.183.733.276.825.55.093.275.55.55.917.734-.183.366.642.641.917.641 0-.092.091-.367.183-.092 0-.458-.458-.458-.641-.733-.184-.183-.367-.091-.55-.275.091-.366-.826-.917-1.01-1.009-.274-.091-.824-1.008-1.007-1.282-.275-.366-.367-.091-.642-.366-.091-.183-.183-.367-.275-.643-.183-.458-.458-1.008-.826-1.373-.091-.092-.183-.183-.275-.092-.091-.275-.091-.55-.183-.826-.183-.458-.366-.55-.458-1.008-.092-.458-.275-.275-.55-.55-.367-.458-.275-1.1-.367-1.649 0 .092 0 .183-.091.275 0-.458-.826-1.1-.551-1.558-.092.368-.367-.916-.367-1.008-.091-.55-.183-1.1-.366-1.65-.092-.183-.092-.458-.275-.641a.832.832 0 0 0 .275-.641c-.092-.735-.367-1.192-.275-1.925.183-1.374 0-2.932.55-4.215.091-.184.183-.458.458-.55v-.826c.092-.458.275-.825.458-1.1-.091.092-.091.092-.183 0 .55-.091.275-.824.366-1.19.093-.367.185-.093.276-.46 0-.366.275-.732.459-1.007.183-.275.091-.551.183-.734.183-.275.55-.459.733-.733.092-.092.55-.917.55-1.19h-.092c0-.092 0-.092.092-.092v.091c.368 0 .826-1.283.917-1.466.275-.458.917-.916 1.008-1.374 0-.184.092-.092.275-.092.275-.092.275-.55.367-.733.368-.55 1.009-.917 1.283-1.466.091-.092.641-.734.825-.642-.184-.55.734-.366.55-.916.459-.092.734-.275 1.009-.551.183-.183.55-.183.55-.183.366-.459.642-1.1 1.282-1.19-.091-.184-.183.09-.275-.092.367 0 1.1-.643 1.1-.826-.367.091-.275.367-.641.183-.092.368-.184.46-.55.46-.55 0-1.466 1.007-2.016 1.373-.367.275-2.291 2.016-2.475 1.741-.091.458-.274.458-.458.733-.184.46.092.275-.367.643-.459.458-1.466 2.29-1.832 2.382-.368.092-1.191 1.74-1.375 2.108-.091-.183-.366.458-.641.367-.183.274-.183.641-.275.916-.183.367-.368.275-.551.733-.183.643-.092.918-.55 1.466-.366.367-.641 1.65-.733 1.741.183-.091-.275 1.374-.275 1.467-.183.641-.275 1.282-.366 1.923-.092.368-.092 2.566-.643 2.474.092-.091.092-.091 0-.183 0 .183-.367.092-.367.368.184 0 .367.458.55.55-.183 0-.183 0-.091.091.458.183.275 1.374.275 1.833 0 .458.276.916.276 1.282-.093 1.009.183 1.374.55 2.199.274.733.274 1.65.733 2.383.274.366.274.366.458.917.091.183.183.733.458.733-.092-.091-.092-.091 0-.183.093 1.19.734 1.924 1.375 2.84 0 0-.092.734-.459.826 0-.092 0-.184.092-.184-.183.092-.916-.733-1.01-.825-.274-.458-.549-1.1-.274-1.557-.642-.092-1.008-.55-1.19-1.1-.092-.183-.184-.458-.275-.642-.092 0-.275 0-.367-.092.092-.183.092-.275.275-.458-.275 0-1.009-2.75-.917-3.116 0 .366-.184-.825-.184-.55 0-.55-.275-.917-.458-1.375-.275-.733-.183-2.382 0-3.207.183.183.183-.183.183-.275-.091-.091-.091 0-.183.092.092-.46.092-1.101.092-1.558 0-.457.275-1.01 0-1.466.183 0 .55-1.557.55-1.925 0 .092 0-.091.091-.275 0-.458.275-.916.458-1.282.092-.274.735-2.474 1.01-2.382.091 0 1.373-3.574 2.016-3.392-.459-.092.275-.733.366-.916.275-.458.183-.55.733-.733-.091-.551.643-1.01 1.01-1.375.274-.641.916-1.191 1.373-1.924 0 .091 0 .091.091.183.367-.825 1.283-1.374 1.833-2.108.642-.733 1.65-1.1 2.2-1.833-.092.092.183-.366.091-.458-.183-.091-.733.275-.55 0-.091 0-.458.183-.183.367-.092 0-1.009.183-.641.367-.185.092-.185-.184-.368-.184-.275.734-1.1 1.283-1.74 1.558-.368.183-.276.641-.643.917-.275.275-.641.459-.916.733-.367.367-.55.459-.55.917-.46.275-.734.826-1.191 1.1 0 .55-.917 1.282-1.282 1.282.092 1.375-1.1 2.566-1.833 3.758-.275.458-.366.916-.458 1.466-.184-.092-.276.275-.368.458 0 .092-.183.642-.275 1.008 0 .092-.091.183-.091.183-.092.184-.183.551-.183.643-.092.458-.55.825-.825 1.1.275 1.009-.458 2.016-.275 3.024-.092-.092-.092-.092-.183 0 .183 0 .091.367.091.459-.276-.092-.091 0-.091.183-.276.092-.46-.183-.46.275-.091.55.092.458.275.825.092.367-.183 1.283.276 1.466-.917 0 .092 1.741-.276 1.465.092.551-.275 1.467.185 1.925-.368-.092.275.458-.185.275-.091.55.368.825.46 1.374 0 .092.183 1.192.366.825-.183.826.642 1.558.275 2.383.367.091 1.008.917.55 1.283.458.091.826 1.557 1.283 1.283-.092.916 1.1 2.198 1.557 2.932.184.367.459.733.55 1.1.184 0 .367.091.55.275.367.367.458.825.825 1.19 0-.09 0-.09.092-.182.366.183.55.733.642 1.008.183.55.092.183.367.091 0 .275.458 0 .458.275-.55.092 1.283 1.191 1.466 1.283a.7.7 0 0 1 .183.458c.184 0 .367 0 .55.092.184.091.458.458.642.275.366.734.917 1.009 1.65 1.191.183.275.183.275.366.367.091 0 .275.183.275.091.091.184.366 0 .366.092-.366.458.46.733.734.641-.274.276.367.092.092.368.55 0 .916.183 1.465.275h-.183c.275 0 1.283.275 1.191.641.092-.091.458 0 .55-.183-.091 0-.275 0-.366-.092.824 0 1.648.917 2.382.459.917.275 1.741.275 2.658.275.55 0 .824-.092 1.1.275.091.091.459-.184.55-.275.367.366 1.282-.367 1.649.091-.184.092-.092.458-.367.642.367-.275-.55-.55-.458-.367.367 0 0 .275-.092.46h-1.283c-.641 0-1.281.091-1.74-.277 0 .092-.091.184-.184.276 0-.459-.458-.367-.55-.642-.091.275-.091.366 0 .55-.366.184-.916-.092-1.373-.092-.735-.092 0-.366-.551-.55.092 0 .092 0 .184-.091-.368 0-.46.275-.642.458-.184.091-.459-.367-.642-.458 0 0-.275.55-.825.275-.367-.184-.091-.459-.091-.55-.826.366-1.558.183-2.291-.092-.46-.183-.826-.458-1.283-.458-.275 0-2.658-1.65-2.841-1.01-.367-.549-.826-.732-1.466-1.099.091 0 .183 0 .275-.091.091-.184-1.649-.642-1.649-.734.092.092.184 0 .275-.092 0-.092-2.016-1.74-2.2-1.924-.274-.183-.367-.275-.274-.642-.551 0-.734-.642-.826-1.19 0 .366-.55-.184-.733-.367-.367-.46-.916-.183-.826-1.01 0-.457-.641-.549-1.008-1.007-.183-.183-.183-.55-.55-.55-.091.092-.275 0-.275-.092.092 0 .459.092.459-.092-.917-.642-.825-1.465-1.375-2.383-.092.368-.367 0-.55-.183h-.091s-.459-1.74-.642-1.374c-.092-.55-.275-.917-.641-1.374.458-.275-.185-.733-.276-1.008l-.367-1.101c-.092-.55.183-1.924-.367-2.291-.183-.092-.366-1.282-.183-1.1-.091-.275-.091-.825 0-1.009.183-.458-.183-.458-.366-.733-.459-.825.275-1.833-.275-2.657 0 .091 0 .091-.092.183 0-.092.092-.092.092-.183v-.092c.366-.826.183-1.924.366-2.842.184-1.1.55-2.198 1.1-3.116 0 .092 0 .092.092.184-.184-1.19.55-2.291.917-3.3.183-.458 1.1-1.557.825-2.107.458.092 2.474-3.482 2.474-4.124 0-.641.917-1.19 1.1-1.833.184-.458.917-1.373 1.466-1.465-.55-.826 1.1-1.466 1.1-2.2.092.276.276-.09.276-.182.274-.092.274-.185.091-.368 0-.367.458-.641.642-.825.642-.55 0-1.466 1.009-1.19 0 0 .091-.55.091-.734v-.183.183s0 .091.092.091c0-.55.458-.458.641-.733.092-.091.275-1.466.55-1.466-.275-.55.458-1.374.55-.916-.275-.642.368-2.566.734-2.841.092-.092.917-1.833.917-1.1.183-.275-.733-2.474-.275-2.382-.092 0-.275-.642-.458-.733.274.366.091-.642 0-.734 0-.275-.092-1.1-.459-1.008.55.092.092-1.008 0-.641-.367-.642-.459-1.191.092-1.741-.368-.092-.734 0-1.1-.092-.092-.366-.184-.733-.459-.916-.092-.092-1.008-.733-.825-.917-.734-.183-.642-.091-1.1-.733-.092-.183-.184-.641-.367-.55-.092.092-.183.092-.275.092.183-.092 0-.825.275-.458-.092-.367.183-1.1.641-.733-.091-.092-.183-.092-.274 0 .458.183 1.19.275 1.466.824.091.184-.184.917.183.825 0 0 .367-.366.55-.183.091.092.458.55.55.367.183.366 0 .458.366.274.184-.091.276-.733 0-1.008.092.275-.366.184-.366.184.55-.275-1.833-2.016-2.016-2.566.183.091.367.091.459-.092 0 .183.183.275.366.275-.091.092 0 .275 0 .458.275-.275 1.008.458 1.282.642.368.183.459.091.643.458 0 .183.183.275.366.183-.458.55.917.55 1.008.642.092-.642-.091-.459-.274-1.008 0-.092-.092-.459.091-.55.275.366 1.283.091 1.191-.183-.367-.459-1.19-.917-.825-1.558-.459.183-.642-.092-.917-.367-.091-.183-.275 0-.366-.092.091-.274.091-.274-.275-.183-.092 0-.185-.091-.276-.183 0-.183.184-.275.367-.275-.091 0-.091 0-.183.092.642.183 1.19.458 1.649.916.366.458.366.092.734.458.275.367 1.648 1.558 2.106 1.008-.183-.183-.458-.916-.458-1.008a.197.197 0 0 0-.183-.183c.275-.092.734-.183 1.009.092-.092 0-.092 0-.184.091.184.183 1.374 1.283 1.466 1.192-.092.641 1.009 1.557.55 2.016.275.091.091-.275.367-.184.184.275 0 .55 0 .825.275-.183.275.183.459.367h.641c-.183-.367.092-1.1-.275-1.008-.183.091-.092-.55-.092-.55.092-.825-.825-1.466-1.374-1.925-.367-.458-.367-1.008-.916-1.191-.275-.092-.734-.275-.917-.641-.093-.367-1.283-.734-1.741-.734.092 0 .367.092.458 0-.183.092-.55-.458-.733-.183.092 0 .092.092 0 .092.092-.275-.55-.458-.734-.458 0-.092.091-.184.091-.275-.824-.184-1.832-.184-2.657-.184-.733.092-1.008.642-1.65.092.092.367-.274.55-.641.458-.367-.091-.275.092-.55.367-.183.183-.55.916-.825.641 0 .184-.092.55 0 .642-.642-.184-.092 1.924-.55 2.016 0-.092 0-.092-.092-.183.091.641-.917.641-1.282.55-.643-.092-.917.091-1.558-.184-.275-.092-.733-.366-1.008-.366-.184 0-.55-.459-.734-.184-.092-.458-.55-1.1-.733-1.374-.367-.367-.183-1.19-.275-1.65 0 .092-.183.275-.275.458-.092.275-.183.642-.092.917 0 .091.092.091.184.091 0 .275.091.55.183.917.092.275.275.55.458.825v-.092c.092 0 .458.366.183.366.184 0 .459-.183.459-.458 0 .55.274.825.55 1.283 0-.091 0-.091.092-.183.458.733 2.291 1.375 2.933.916.824-.55 1.74.642 2.29 1.008.734.55 1.009 1.192 1.558 1.833.092.092 1.374.733 1.374.733-.55.275-.458.55-.092 1.192.367.641.733 1.282.733 2.016 0 .366-.275 2.29-.09 2.382-.46-.091-.734 2.291-.918 2.75-.366 1.1-.824 2.107-1.008 3.207-.642.458-1.009 2.016-1.283 2.656-.183.368-1.466 1.558-1.373 1.741-.093 0-.093-.091-.185-.091-.091.183.368.275.092.458-.092-.275-.275.368-.458.183-.275.643-.642 1.192-.916 1.833-.735 1.283-1.467 2.474-2.383 3.666-1.191 1.65-1.925 3.299-2.84 5.315-.643 1.374-1.192 2.749-1.742 4.123-.183.55-.733.642-.643 1.283.093.367-.183.642-.275 1.008-.274 1.192-.274 2.383-.458 3.574-.091.367-.183.642.275.733.092.275-.366.459-.183.55-.092 0-.092-.091-.183-.091-.086.635-.086 1.827.373 2.56zm35.648-20.068c.275-.184.183.183.275.183 0 .275-.46-.091-.367.367 0 .092 0-.458.092-.55zm-4.582 4.49c0 .275-.185.367-.092.55-.183 0-.091-.366-.367-.275.092 0 .459-.276.459-.276zm-1.1.367c.092 0-.733.458-.733 0zm-11.638 24.192c.733.091.641.917 1.191 1.009.184 0-.184.825-.184.916-.183.367-.916-.091-1.19-.091.183-.184-.184-.367-.367-.459.183-.55.55-1.009.55-1.375zm-4.49-9.805c.091-.275.458-1.19.366-1.374.092 0 .092.091.183.091.092-.275-.274-.091-.183-.366.183.091.275 0 .367-.183.459 1.282.091 2.657.184 3.94-.184-.275-.093 0-.276.092.276-.092.46.366.46.55 0 .091-.368 0-.46 0 .092.183.46 0 .368.366-.092.092-.551-.092-.368.183-.091-.091-.183-.183-.275-.183.092.092.092.092 0 .092-.091-.184 0-.275.092-.367-.092-.366-.275.733-.367-.366 0-.459.092-.917.275-1.375-.275.092-.091-.092-.183-.275.275.182-.275-.55-.183-.825zm-.917 4.49c0-.09.092-.183.184-.183 0 .092 0 .184.091.275.092 0 .183-.183.183.184 0 0-.458-.184-.458-.275zm.733.733c.275.458.275.917.184 1.466-.642-.274-1.283-1.466-.184-1.466zm.917 3.3c-.092 0-.184.091-.275.183-.367-.55-.55-1.009-.733-1.558.366.092.458.458.916.458-.366 0 .275.55.092.917zm1.1 2.474c.091-.092-1.558-1.375-.734-2.2.092.55.642.917 1.008 1.374-.091 0 .367.918-.275.826zm.458 2.474c-.184 0-.092.275-.367.184.092-.092-.183-.459-.275-.459-.366-.366 0-.734-.642-.734.184-.091.184-.275 0-.366.55-.275.642.734 1.19.734.002.091.094.366.094.641 0 0 .091 0 0 0 .091 0 .091 0 0 0 0 .184.091.275.091.275-.091 0-.091-.183-.091-.275zm.366-4.673c-.916.275-.55-1.01-1.282-1.375.275-.183-.367-1.008-.367-1.19 0-.643-.733-1.283-.367-2.2.183.092 0 .367.367.275-.367-.183.184-.183.276-.183-.368.092.183.275.275.275.366 0 .275.642.275.825-.184.826.274.183.366.734 0 .183.092.916-.275.825.092.183.183.458.275.641.367-.183-.092-.641.458-.458a.938.938 0 0 1 .458.55c.184.458.551.826.551 1.283.092-.092.092-.183.092-.275.183.367-.092.641-.092 1.008.55-.183-.091.916-.091.733-.644-.186-.919-.918-.919-1.468zm.367 3.39c0-.092.091-.55-.092-.55.092-.092.183-.092.368-.092 0 .091-.092.091-.185.091.459.184-.091.917-.091.55zm.183 2.29c0-.091 0-.275.092-.366.184 0 .092.275.276.275-.093.091-.276.091-.368.091zm.825 1.101c-.184-.183.366-.643-.367-.458.092-.185.092-.368-.183-.46.275-.183.641.092.916.184.092 0-.091.642-.366.734zm1.008-2.016c-.092.183-.275.183-.275-.092-.275.092-.183.184-.183-.091-.459.183 0-.275-.459-.092.092-.091.184-.642-.275-.458.275-.368.55.092.917.092 0 .274.091.55.275.55 0 .091 0 .183-.092.183.918-.184 1.1 0 1.466.824-.366.55-1.466-.367-1.374-.916zm2.382 3.849c-.091-.185-.458-.276-.366-.551-.183.183-.367-.092-.55-.092.183.367-.55-.183-.641-.275-.276-.183-.184-.366 0-.458.274-.091 2.015.275 2.015.917-.183 0-.366.366-.458.459zm10.63 2.474c.184-.183.734 0 1.009-.092-.184.184-.642 0-1.008.092zm11.18-11.363c-.274-.092-.458.091-.734.091-.09-.642-.366-2.199.551-2.016.55.092.092 1.19.275 1.742-.275-.092-.091 0-.091.183zm.459-3.209c-.275.459-.825.184-1.008-.183-.368-.55.091-.183 0-.641-.092.091-.092.091-.092 0 .092-.092.55-.55.367-.733.366-.092.641 0 .641-.46.55.644.458 1.469.092 2.017zm.091-3.206c-.091.458-.275-.366-.275-.55.184 0 .092.275.275.275-.091.092-.183.183-.183.275.092-.183.183-.092.183 0zm.642 7.056c-.642-.458-.275-2.016-.275-2.566 0-1.1 1.374-.091.458.642.092.64.275 1.374-.183 1.924zm.55-4.308c-.275 0 .183-1.1.183-.091-.183-.183-.183-.274-.183.091zm-.459 6.783c-.091-.092.275-.092.275-.092-.09 0 0 0 0 0h.185c-.368.183 0 .55-.46.733.092-.184.184-.641 0-.641zm-.183 1.007c.092.091.092.184.275.184 0 .091-.092.183-.183.091-.092.092-.092.184-.183.275-.275-.091.091-.459.091-.55zm-.458 3.757c.367-.55.733-1.1.916-1.741.185-.734.276-.092.46-.459 0-.091.091-2.107.641-1.924 0-.092-.091-.183-.275-.183.092-.092.092-.184.092-.275.183.183.275 0 .458 0-.275-.184-.092-.917-.183-.825 0-.826-.184-1.65 0-2.383.091-.366.733-.459.641-.275.551-.55.643-.55.458-1.282-.275.183-.916.916-1.008 0 0-.825-.275-1.65-.091-2.475.183-.641-.458-1.374-.642-2.107-.091-.642-.091-1.375-.275-2.016-.55.458-1.283-1.282-1.466-1.833-.825 0-.55-1.19-.55-1.465-.55.733-1.65-.735-1.832-1.192-.092-.183-.459-.458-.734-.55-.183 0 .092.184-.091.275-.275-.183-.458-.55-.826-.641-.55-.092-.183-.367-.642-.55.092 0 0-1.1.092-1.466-.183.55-.641.366-1.008.641-.183.184-.368-.091-.734-.091.275-.184-1.1-.459-1.465-.367-.275-.641-1.192.092-1.467-.641-.091.091-.55.183-.641-.184-.092.184-1.283.275-1.283.367.092-.458-1.741 0-1.833 0-.733 0-1.556-.55-1.556.458-.184-.183-1.833.642-2.017.825-.091-.092-.091-.183-.091-.275-.183.183-.733.458-.55.825-.183 0-.46 0-.643-.092.092.368-.824 1.925-1.1 1.466.092 0-.549.917-.549 1.01-.276.916-.643 1.74-1.01 2.657-.824-.092-.09 1.282-.182 1.74-.092.826.183 1.558.274 2.475.092.917.735 1.282.918 2.015.092.368 0 .826.183 1.192.275-.092.642-.184.917 0 .183.183.916 1.282 1.283.916.274.367.183.551.641.551.092 0 .183-.092.367-.092-.55-.642-.459-.917-.459-1.466.092.092.917 0 1.19.092-.091.183 0 1.833-.64 1.19 0 .184.182.276-.092.368.366.366.917.641 1.466.458.091 0 1.282.091 1.1.366.458-.091.55-.458.825-.641.458.183.825-.092 1.1-.367.367-.367.641-.459.458-.917-.091-.183.092-.275.275-.367-.183.092.184-.733-.183-.733.091-.091.183-.091.367-.091 0-.276 0-.46.092-.643.092-.275.275-.55.275-.916.275.183 0 .366 0 .55.183-.55 1.282-.825 1.832-.917.276.367.55-.183.825.275.184.275.642.458 1.009.458-.275.183.091.367.183.458-.092.092-.092.092-.183 0 .458.367.825 1.925.458 1.925 0 .275-.184 1.1-.092 1.283.092.366.184.55-.091.733-.367.366-.367.458-.459.916-.091.551-.458.826-.458 1.375-.091 0-.091-.092-.091-.183-.092.183-.092.366-.092.55-.183 0-.367-.092-.458 0 0 .55 1.19-.459 1.19-.459-.183-.275.183-.916.46-.916-.093-.275.366-.826.457-1.191-.091.274 0-.459 0-.642 0-.275.55-.641.367-.826 0 0 .183-1.1.183-1.282 0-.366.092-.641.55-.641-.366-.551-.366-2.2.092-2.383-.275 0-.184-.459-.184-.55-.366.183 0-.367 0-.459.275-.641.55-.091 1.101-.183a3.8 3.8 0 0 1 .275 1.466v.825c-.275 0-.366.091-.366.366-.368-.366-.643.275-.643.275.092.275.458.275.734.46v1.923c0 .826-.276.46-.734.826 0 .183.367 0 .183.275.092 0 .184-.092.184-.275.091.458.276.733-.092 1.1-.275.274-.275.734-.275 1.009-.092.641-.458 1.008-1.1.824v.092c.092 0 0 0 0 0H562c.183.275.183.825 0 1.191-.184.275 0 .275-.092.55.367-.458.917-1.283 1.465-1.191.092 0 .46.275.46 0 0-.092-.092-.458.091-.367-.184-.091-.275-.183-.46-.183.185-.367.827-3.207 1.284-2.383-.092-.275.55-.183.641-.091.275.366.184.916.092 1.374a5.811 5.811 0 0 1-.733 1.282c-.183.275-.458.367-.275.733.091.185.091.276-.092.46.092.091.184 0 .184-.092.183.183-.367.275-.275.55-.184-.55-.735.916-1.101 1.008.091.275.183 0 .275.366.184-.091.091-.275.276-.091-.092-.184.091-.367.458-.642s.458-.824.825-1.19c.55-.46 1.009-.734 1.1-1.375 0 0 .184-.733.184-.55.091-.458.091-1.374.55-1.649.458-.275.824.275.824.642-.641.091-.091 1.65-.733 1.65-.091 1.099-.641 2.382-1.65 3.023-.457.276-.366.734-.732 1.1-.275.276-.55.184-.733.55 0 .276-.092.367-.275.367-.643.275-3.758 3.209-4.4 2.383-.367.092-.55.826-1.282.55.183.367-1.375-.09-1.466.46-.092-.367-1.1-.093-1.008-.46-.367.276-.184.367-.642.367-.183 0-.275 0-.183-.183-.275.092-1.191-.091-1.1.183.09.184-1.009-.183-1.191-.183.733-.55 1.74.183 2.383-.46.091.092.091.092 0 .185.458-.367 1.1.092 1.373-.092.092-.092.458-.642.734-.459-.276-.275.733 0 .917-.275-.092.184.55.092.733-.183.275-.366 1.466-.275 1.558-.916.091 0 .275.091.366.183-.183-.275.826-.734.826-.734-.092 0-.092.091-.184.183.459-.275.367-.641 1.009-.641-.275-.092 1.008-.733 1.1-.825v-.367c.091 0 .091.092.091.184.276-.092.183-.642.46-.642-.46-.276-.735.183-.826.55-.459 0-.917.367-.917.55 0 .091-.366.366-.55.183-.091.55-2.567 1.833-3.3 1.65.275.274-.55.274-.641.366.091 0 .183.092.275.092h.091-.092c-.184 0-.367.183-.367-.184-.183.734-.826-.091-.826-.091.368.55-1.648.641-1.74.641-.917 0-1.924.459-2.383-.458-.183.458-2.29.642-2.566.183-.091-.091-1.009-.091-1.19-.183l-.55-.275c-.092 0-.092.092-.092.183-.183-.091-.458-.091-.643-.183v-.183c0 .092-.183-.275-.091-.275.276-.092.642-.643.734 0 .458-.092.916-.183 1.373-.183.826 0 1.65.366 2.475.55 0 0 .917.091 1.1-.184-.183.092.184.275.184-.091.091.183.641 0 .458.275.275-.367.734-.367 1.191-.459-.091-.183-1.1 0-1.283-.091.092.091 1.192-.092 1.283-.092-.734-.276-1.466.092-2.2-.184l.184-.183c-.275-.092-.366-.092-.641-.092 0 .092 0 .183.183.183-.092 0-1.65.276-1.283-.091-.183.275-.458-.092-.733.183.275-.275-.55-.367-.643-.458-.55-.092-.183-.184-.458-.642-.183 0-.275.275-.458.092 0 .825-1.65-.275-2.016-.367-.458-.183-.733-.458-.917-.826.092.093.275.093.459.093-.184.275.091.275.275.275.274 0 .183.275.55.183.55-.091 1.924-.275 1.924.367.275-.092.458-.092.733-.092-.55.367 1.1.184.55.092.55-.275.642.458 1.009.366.458-.458.091-.55.091-.916-.55.458-1.008-.092-1.557 0 0-.092.091-.092.183-.092 0 .092-2.107-.917-1.832-.367-.275-.183-.642-.367-.642-.733-.275.275-.825-.184-1.19-.092 0-.458-.367-.366-.55-.366-.092-.184-.275-.367-.368-.55-.183-.367-.367-.734.093-1.01.366.184.641.276 1.008.459.275.091.641.275.916.367.275.092-.092.184.092.367.091 0 .091-.092 0-.092.917.092.459.55.917 1.282.092-.366 0 .092.367.092.275 0 .183-.367.366-.458.092-.092.092-.092-.091-.092.275-.091 1.466-.458 1.466.092.641.091 1.373-.184 1.924.183-.459.55 1.008 0 1.1-.092l2.474-.824c1.01-.275 1.558-.367 2.291-1.101.642-.642 1.192-.733 1.283-1.925.183.276.275-1.19.55-1.19.641 0 .367-1.558.458-2.016 0-.366.275-.733-.183-.916-.183-.092-.55-.183-.733.091-.275.367 0 .733-.183 1.1-.184.458-.275 1.01-.368 1.466-.092 0-.092-.091-.183-.091 0 .091-.092.458.183.366-.183.184-.642-.091-.642.367 0 .091 0 .458-.183.275.092.091.092.183 0 .275-.183.091-.825.366-1.1.55-.276.184-.459.367-.734.642h-.733c-.275.092-1.375.367-1.375.55-.366-.458-.916-.183-1.465-.092-.366.092-.366-.275-.55-.183 0-.092 0-.183.184-.183-.092-.367-.643-.184-.551-.458-.458.274-.825.366-1.374.458.275-.092-.183-.275-.183-.184-.092-.274.092-.55.092-.825-.092-.184-.275 0-.367-.184-.368 0-.092.46-.55.092-.276-.275-.917-.275-1.374-.367-.092 0-.918-.458-.551-.458-.184-.091-.458-.183-.367-.183-.641-.275.092-1.283.275-1.558 0 .275.276.46.46.55.09-.275 0-.183.274-.275-.458-.642-1.1-1.008-1.374-1.74-.092-.275-.092-.826-.184-.826h-.55c0 .092.092.183.184.183h-.367c-.091.276.275.092.184.46.091-.092.091-.184.274-.184.184.275 0 .642.275.825-.091.092-.091.092-.183 0-.091.367.275 1.466-.458 1.65.092-.368.183-.551.275-.918-.092-.183-.275-.091-.183-.366-.459.183-.826-.367-.55-.367-.092-.275-.276-.092-.46-.092.275-.183 0-.275-.183-.275 0-.183.092-.183.275-.091-.092-.275-.183 0-.366-.183.091-.092.091-.184.183-.276-.183-.092-.183.184-.275.276-.092 0 0-.184-.275-.184 0-.184.55-.184.183-.276-.091-.091-.091-.366-.183-.458 0-.091-.183-1.008 0-.733 0-.183-.275-.458-.183-.55-.917-.091-.55-1.833-.458-2.474.091 0 .091.092.091.183.275-.46-.458-.642-.458-1.009-.092.092-.092.183-.092.275-.459-.458-.091-1.19.275-1.557-.183-.367-.46-.917-.183-1.374.183-.275.55-1.833 1.1-1.558-.275-.55-.184-1.008.091-1.465.092-.184.733-.918.275-1.01.092-.183.275-.458.367-.641.091 0 .091.092.183.092-.183-.367.643-.825.734-.917.642-.275.642-.826.917-1.466.55.367 1.282-1.466 1.74-1.191-.458-.55.367-.275.55-.275 0-.183 0-.367.092-.458.183-.184.643-.275.55-.642.368-.091.734-.091 1.01-.458.182 0 1.19-.367.915-.46.092.093.184.184.092.277.643 0 1.01-.735 1.741-.735.825 0 1.466-.274 2.383-.55 0 .184-.275.092-.275.276 1.1 0 2.29-.184 3.299.183.276.091.55.183.734.366.183-.183.458-.183.642-.183.183 0 1.1.275 1.19.092-.183.55 1.65.642 1.558.917.55-.55 3.116 1.649 3.3 1.19 0 .092.825.735.916.826.275.184.55-.091.642.275 0 .183.183.275.366.367.826.366 1.191.733 1.741 1.19.275.275.643.55.826.826.367.458.917.55 1.1 1.1.091.366.458.366.733.64.276.277.368.094.55.46a.504.504 0 0 0 .46.275c-.093.092-.184.092-.276.092.458.091.55.55.917.733.274.091.458.55.824.55.276.917.826 1.283.643 2.383.366 0 1.008-.276 1.19.275.092.092.183.092.368.092 0 .183.09.366.275.55.183.091.366.275.458.275-.275.366 1.008 1.924 1.373 2.107.368.275.551.642 1.01.917.458.275.366.917.916 1.009-.275.183.091.458-.092.641.183 0 .275-.275.275-.275.092.642.092.275.643.734.275.274.366.917.275.825.458.733 1.648.825 2.107 1.465.55.918 1.649 1.101 1.649 2.2 0-.183.091-.183.275-.183.276.274.184.091.55 0 0 .366.642.366.459.641.275-.275.825.276.458.46.275-.368.733.366.825 0 0 .55.917.457 1.283.916.458.55 1.1.275 1.65.641.366.275 1.19-.091 1.74 0 .275.092 1.1.46 1.1.643 0-.092.275-.184.275-.184-.367-.55 1.833-.55 2.29-.184-.274.184 0 .184 0 .46.46-.092-.182-1.284.827-1.101 0-.184.09-.184.09-.275.093.091.093.183.093.275.183 0 .641-.092.916-.092-.091.275 0 .275.275.275 0 .183-.091.183-.275.092.092.183.184.274.275.458 0 0-.733 0-.733-.092-.366.368-.183.734.092 1.1.458.367.916.642 1.282 1.1.459.643.183.735-.092 1.192-.458-.092-1.373-.55-1.74-.733-.46-.276-.368-1.101-1.283-.734.092 0 .092-.092.092-.184-.092-.183-.55.184-.55-.183v-.183c-.092.641.55 1.191 1.1 1.374-.092.55.55.275.458.825.459.092 1.1.458 1.1 1.1 0 .826-.641.459-1.1.367-.184-.091-.55-.367-.55-.642 0 0-.458.091-.55.091 0-.458-1.1-.824-1.1-.824-.276.091-.459 0-.642 0 .275-.184-.183-.55-.275-.733-.092.183-.092.366-.092.458.092 0-.275-.917-.366-.917-.275 0-1.467-.734-1.192-1.374 0 0-.641-.184-.55-.092-.274-.458-.366 0-.55.092.642.275 1.467 1.19 1.467 1.74.183-.274.55.367.641.46.184.274.275 0 .184-.093.183.092.366.092.458.184-.367.458 0 0 0 .55.275-.184.275.275.458.366.092 0 .183-.091.183-.275.918.275 1.283 1.65 2.291 2.108-.183.275-1.465.458-1.373 0-.642 0-1.01-.55-1.65-.733.092-.367-.641-.734-.733-.551.184-.458-1.191-1.1-1.466-1.282-.275-.182-.55-.367-.55-.55 0-.183-.458-.46-.641-.46.183-.09-.826-.732-1.101-1.007.092-.092.183-.092.275-.092-.183-.183-.458-.091-.458-.275-.367.367-.092.825.366.825 0 .458.367.643.367.826.734-.092.826.825 1.374.825 0 .091-.091.091-.183.091 0 .184.367.092.458.092-.183.092.367.183.184.458.642.092.274.458 1.009.458-.184.185.916 1.375 1.1 1.375-.092.183 0 .183 0 .366.183-.183.366.184.55.184-.276.366-.459.458-1.009.366-.733-.183-.825-.275-1.283-.733-.458-.366-1.1-1.19-1.557-1.373-.275-.093-.825-.551-1.009-.918-.183-.366-.183-.55-.55-.733-.366-.092 0 .183-.366-.366-.275-.46-.825-.643-1.1-1.101-.276-.458-1.466-.55-1.283-1.558-.733 0-1.1-.642-1.191-1.374h-.641c-.092-.275-.367-.183-.55-.183.458.367.183.825.733 1.1.275.183.183.55.275.917 0 0 .458-.366.275 0 .459.092-.367-.275.459 0-.368-.091.825.642.275.55.458 0 .733.733.916 1.1.275.459.733.55 1.101.917.275.275.458.55.733.642-.092.183-.092.275.092.366.366.367 0 .275.55.458-.275.185.824.735.917.643-.184.183 1.373 1.374.367 1.1-.46-.092-.826-.55-1.283-.825-.459-.183-.55 0-.642-.458a.197.197 0 0 0-.183-.184c-.275-.091.091-.276-.367-.276-.184.185-.276.092-.367-.183-.367-.366-.55-.458-1.008-.733-.092-.092-.825-1.008-.825-.366 0 .183.366.274.55.274-.092.184 0 .184-.092.367.275-.367.183.092.367.367.091-.092.091-.184.275-.184 0 .184.091.184 0 .367.091 0 .183 0 .274-.092-.091.551.642 1.466 1.192 1.192-.092.366.641.824 1.008.733-.367.366 1.374.55 1.558.734 0 .091 0 .091-.092.091.825.184 1.741.642 2.658.55.091 0 1.281-.366 1.1-.183.642 0 3.391-1.01 3.3-1.833.183.275.366-.366.64-.366-.366-.184.276-.55.46-.826.274-.367.366-.092.458-.642 0-.275.092-.55.275-.733.092 0 .092.092.092.184.641-.55.366-1.558.366-2.2 0-.458-.091-.916.184-1.374-.275-.275-.184-.734-.275-1.1-.092.458-.458-.367-.184-.275-.274-.275-1.282-.55-1.374-.734-.092 0-.092.091 0 .091-.642-.275-1.008-1.1-1.1-1.74-.091-.366.184-.642 0-.917-.183-.275-.275-.55-.275-.825 0-.458.275-1.283.55-1.741.367-.183 1.465-.825 1.465-1.1 0 0 1.283-.183 1.375-.183.183 0 .366.092.458.275.275-.092.55-.092.734 0 .458 0 .55.183.917.458-.184-.458.733.092.641.092.275.275.55.366.918.458.366.183 1.008.917 1.1.826-.092.275.09.55-.184.733.092 0 .641.458.55.183.366.733 1.1 1.65 1.191 2.474-.183 1.101.092 2.108.458 3.116-.275-.183-.183.643-.183.734-.092 0-.092-.091-.183-.091 0 .916 0 1.833-.092 2.84-.55-.274-.366.734-.55.55.184.275 0 .735-.184.918a1.995 1.995 0 0 0-.458.733c0 .092.091.092.183.092-.275.641-.641 1.19-.916 1.74-.275.184-.55.184-.459.55-.183-.091-.274 0-.458-.091.09-.183 0-.183 0-.367-.092.184-.642.733-.826.459-.274.091.092.458.092.55-.275-.184-.092.183-.183.366-.275-.183-1.283.275-1.1.643.183.274-.55.366-.368.641 0-.092-.091-.092-.091-.183-.092.091-.367.275-.367.366-.55-.275-.55-.183-.641.275-.092.458-.275.367-.733.642-.184.091-.826.091-.826-.184-.092.092-.642.092-.642-.275-.366.184.092.55-.458.642-.459.093-.366.368-1.009.368-.55 0-1.557.366-1.832 0-.092-.184-.184.091-.184.091 0-.091-.092-.183-.092-.275-.274-.276-.733-.184-1.008-.184-.091-.092 0-.183.092-.183-.092-.275-.641.183-.55.459-.458.092-.734-.643-.826-1.01-.275.184-.183.55-.366.734-.367-.092-.458-.367-.733-.55-.275.092 0 .183-.184.367a2.038 2.038 0 0 0-1.466-.275c.183-.458-.825-.367-1.008-.458-.458-.367-.642-.825-1.374-.825.458-.275-.642-.275-.459-.643-.55.276-.733-.55-1.008-1.008-.092-.091 0-.183-.276-.183-.275 0-.366-.275-.641-.458-.458-.458-.733-.918-1.282-1.375-.46-.458-.643-1.008-.276-1.558.184.276.092.551.184.826.459 0 .733-.275 1.1.183.183.275.458.55.733.367-.091 0 .551 1.008.643.458-.092-.091-.276-.091-.46-.091 0-.184-.091-.367-.183-.55-.091-.092-.733-.55-.733-.55 0 .091.092.091.092.183-.092-.091-.092-.091-.184 0 .092-.734-.55-.55-.641-.826-.183-.458-.46-.366-.643-.824 0-.092-.55-1.192-.183-.917 0-.276-.367-.55-.458-.642-.183 0 .091.183 0 .366-1.374 0-1.65-1.465-2.383-2.474.092 0 .092.091.184.091-.275-.366-.642-.824-1.1-.733-.367.092-.643.184-.918 0-.091.184-.091.367 0 .459.184-.184.735 1.009.643 1.374.275-.091.458.55.458.642.092-.092.275-.092.458-.092.367.092.459.183.733.275.826.367.092.917.735 1.191.458.184.366 1.374-.184 1.1 0 .092 0 .183.184.183-.276.368-.368.092-.368.643.092-.092.092-.184.092-.275.183 0 .091.366.091.458-.183-.183-.183.183-.458.092 0-.092.092-.092.092-.184-.367.184.366 1.19.458 1.557.183.551-.367.734-.092 1.375-.091 0-.091-.092-.091-.184-.184.55-.367 1.19-.367 1.742-.092.824.367.458.55 1.1.276.917-.183 1.008-1.008 1.282-.367.092-1.1-.366-1.283-.091 0 0-1.649.55-1.649-.092-.183.183-.091 0-.274-.092-.092 0-.185.367-.551.275-.367-.091-.825-.183-1.19 0 .366-.366-.55-.55-.55-.183 0 0-.551-.46-.459-.642-.459.183-.642.091-.459-.367-.092.183-.183.183-.275 0-.275.092 0 .458-.458.367 0-.092.092-.092.183-.092 0-.092-.091-.092-.183-.092 0-.091.092-.091.183-.091-.275-.275-.458-.55-.733-.55-.183.183.092.275-.366.183.275-.183-.276-.366-.184-.641-1.009.366-1.558-2.383-1.74-3.117-.184-.733-.55-1.374-.55-2.2 0-.458-.735-.916-.46-1.465-.275 0-.275.184-.458.092 0 0 .458-.183.458-.275-.092-.092-.092-.183-.092-.366-.366.183-.183-1.01-.733-.826.459.458.275 1.924.459 2.474.091 0 .091-.092.091-.183.092.183.55 1.832.642 1.558-.275.641.825 2.016.642 2.199-.091.091-.275.275-.091.458-.184.275-.459.367-.551.55-.55 0-1.008 0-1.19.55-.459-.458-2.292.184-2.475-1.1-.091 0-.091.092-.091.183-.184 0-.092-.366.091-.275-.183-.366-.275-.183-.641-.274-.184-.367-.092-.55 0-.918 0-.092-.46-1.19.091-1.19.452-.186.635-1.745 1.002-2.203zm-2.658-8.89c.092.367.275 1.101-.366.918-.826-.276-.367-.183-.643-.826-.091-.366 0-1.373.185-1.924.091.092.641 0 .55.276.091-.093.091-.184.091-.276.092 0 .275.46.458.276.642.366-.366 1.282-.275 1.557zm.092-2.199c-.641-.091-.733-.275-1.19-.55 0-.183.09-1.007.275-1.466.275-.916.824.184 1.008.184-.092.276-.092.642-.092.917.458 0 0-.458.458-.366-.184.733.64 1.465-.459 1.281zm-.55-3.206c-.091 0-.183 0-.275.092-.091 0 .184-.459.184-.459.274.092.091.275.091.367zm-.366-2.016c.458.183.55 1.19-.092 1.008-.092-.368.092-.55.092-1.008zm-.184-1.376c-.09-.275-.09-.641.185-.824.733-.55.824.55.733 1.008-.276-.092-.734.367-.918-.184zm1.467 3.484c-.275-.458.641-.458.366-1.101-.275-.55-.366-.641.092-.825.183.55.183 1.192.183 1.65-.092.459-.367.733-.641.276zm-2.566-.825c.091.092.183.092.183.275-.275 0-.55.183-.825.183.458-.55-.091-1.833.092-2.382.183-.643.825.641.825.733.183.55-.275.733.366 1.1-.183.274-.458-.002-.641.09zm.183.458c.092 0 .183-.091.275-.183.641.825-.275.183-.275.183zm-.642-4.857c.734-.734.55.55.917.458-.092.55-.458 1.19-.917 1.19 0-.366-.183-.183-.274-.457.458-.092.366-.916.274-1.19zm-2.199 7.423c-.091-.733 0-1.375.183-2.108.734.733 1.1 1.558 1.19 2.475-.366.183-.366 0-.732-.092.184.549-.366-.275-.64-.275zm1.283-4.215c-.091.458-.275.916-.091 1.466-.367.275-.734 0-1.1.091-.092-.274-.092-.642-.092-.917 0-.55.184-1.1.184-1.648.091 0 .55.275.366.458.55-.092.825-.275.733.55zm-.275-1.926c.092-.091.368 0 .368.275-.276 0-.46-.092-.368-.275zm-1.833 4.857c.093 0 .185.092.185.183-.275-.091-.092.368-.185.46-1.1.641-1.281-1.742-.733-1.833.643-.092 1.101.091.918.733-.185.182-.276.274-.185.457zm-.55-1.648c-.091-.092.092 0 0 0-.458-.276-.458-.735-.458-1.375-.458 0-.183 0-.275-.183-.183-.55-.55.824-.55.824-.091.184-.825.55-.825.367-.275-.275-.367-2.29-.183-2.29.183-.184.642.09 1.1-.093 0 .092.092.643.275 1.01.183-.275.458-.275.733-.459 0-.183-.183-.091-.183-.367.275.091 1.558-.092 1.01.55.181.55-.277 2.749-.643 2.016zm-1.19 2.015c0 .091-.276 1.19-.459.459 0 .458-.55 0-.55 0-.276-.275-.184-.643-.184-1.1 0-1.009.366-1.283 1.283-.826.184.368-.09 1.008-.09 1.467zm.183-8.064h-.367c.183-.458-.183 0-.183-.458.183-.091.275-.091.275-.366-.092.091-.184.366-.367.183.183-.734.642.275.642.275s-.092.183 0 .366zm0 .916c-.092.55-.092.826.091 1.466-.366 0-.641.183-1.009.275.001-.732.184-1.925.917-1.741zm1.19 1.74c-.366.734-.549 0-.916 0 .092-.274.825-1.19 1.19-1.557.552 0 .185 1.1.46 1.375-.183.366-.55-.183-.733.183zm.276-3.205c.367 0 0-.275.459-.275 0 .275-.183.275-.275.458-.093 0-.276.091-.184-.183zm-4.124 11.73c-1.1.091-.55-.918-.55-1.65.09-1.833 1.74.641.733.55 0 .365.55 1.008-.183 1.1zm-.641 1.465c-.825-1.466 1.924-.917.367-.092 0 .183-.091.276-.276.276 0-.093.093-.093.185-.093-.093-.091-.368-.275-.276-.091zm-1.558.184c-.643.458-.735-.184-.643-.643.092-.275.183-.55.46-.641.274-.183.55.275.732.091.367.734.184 2.291-.641 1.1 0 0 0 .093.092.093zm-.367-2.2v-1.466c.275-.275.642 0 .916.092.367-.092.459.092.275.458 0 .367 0 .826-.091 1.191-.367.184-1.192.55-1.1-.274zm1.283-2.658c-.183.183-.458.276-.55.46-.091-.184-.275-.184-.458 0-.275-.643-.275-2.843.916-1.925 0 .091-.091.091-.183.091.733.367 0 1.007.275 1.374zm0-2.84c-.092.366-.367.182-.55.457-.183-.091-.366-.091-.458-.275-.183 0 .092.184-.092.275-.275-.733-.091-1.556 0-2.382.275.275.275-.275.734 0 .366.183.458.55.458.917.091.275 0 .642-.092 1.007zm-.092-2.2c-.366-.367-.916-.367-.916-.917 0-.366.275-.734.733-.734-.183-.366.183-.641.458-.733.459.642.459.642.275 1.466-.091.002-.55 1.01-.55.918zm.825 5.316c.092-.643-.183-1.466.183-2.016.276-.092.46 0 .735.091.366.092.183.367.458.459-.46.823-.093 2.199-1.376 1.466zm.092-5.041c.091 0 .184.366.184 0 .092.275.55.091.55 0 .183.183.183.642.367.734-.367.55.091.916 0 1.465-.092.734-.734.183-1.101.183.366-.366 0-1.923 0-2.382zm.183-.458c0-.092-.093-.642-.093-.275-.09 0 .368-1.1-.09-1.1.55 0 1.373-.368 1.19.55.001.55-.457 1.008-1.007.825zm-2.566-1.374c-.091.183-.183.275-.366.458.366.092.091.642 0 .733-.367.275-.367-.091-1.008 0 .091-.091.275-.183 0-.275 0-.091.366-.183.275-.183-.092-.275 0 .092 0-.183.091 0 .091.091.091.183.183-.091.367-.366.092-.55.183-.183.366-.459.366-.642.092-.55.275 0 .367-.092 0-.091.091-.183.183-.183.092.091-.366.55 0 .458 0 .183-.091.276-.275.368.092 0 .183 0 .275-.092zm-2.016.825c-.276.916-1.833.458-.826-.184v-.091c0 .091-.091.091-.091.091l.091-.091c.275-.275.642-1.375.826-1.466-.368.458-.184 0 .183.275.092.183-.183.366.092.366 0 .092-.275 1.1-.368.643-.182.09.001.457.093.457zm-1.65 7.421c.092 0 .367-.733.367-.824.458-.092.733.183.825.55.276 1.008.092 1.649-1.008 1.374.275-.275-.183-.916-.183-1.1zm.092-1.557c-.091-.092.183-.55-.183-.459 0-.183.183-.824.275-.916.183-.092.366-.275.183-.458.275-.092.733-.368.733-.275.184 0 .092.641.275.733.092.183-.183 1.282-.183 1.65-.275-.184-.733.184-1.1-.275zm.825-2.566c-.642-.184-.642-.092-.642-.917.092-.55.184-1.009.184-1.558.183.55.733.275 1.1.367 0 .643.183 2.291-.642 2.108zm1.1 3.666c.183-.55 1.1-.366 1.373-.183.183.092 0 1.282 0 1.65-.458.274-.825.274-1.373.274-.275-.459-.184-1.192 0-1.74zm1.374-1.009c0 .276 0 .368-.55.276-.366 0-.641 0-.733-.46-.091-.549 0-.824.092-1.373.091-.641.825-.366 1.373-.366.185.641-.182 1.465-.182 1.923zm-1.191-4.765c.55-.367.641-.092 1.19-.275 0 .826 0 1.466-.183 2.291 0-.183-.092-.183-.275-.275-.183.458-.458.458-.825.275 0-.092.092-.092.092 0-.274-.64 0-1.373 0-2.016zm-2.75 4.858c-.09 0-.184-.276-.274-.093-.093-.091-.093-.091 0-.183-.185 0-.276.092-.368.183-.275-.733-.275-1.557.092-2.382.366.367.55.825.642 1.374.092.458-.091.825-.091 1.1zm-.457-3.117c-.184-.275-.275-.825 0-.916.091 0 .367-.367.184-.458.09-.185.275.366.458.366-.093.093-.184 1.926-.642 1.008zm51.684 11.73c.092.092.275.092.458.092.183.366.275.55.183 1.009-.458-.275-.824-.643-.641-1.101zm-34.181 5.224c.091.092.183 0 .275-.184.091-.183.091-.458.091-.55.092-.366.367-.275.458-.366v-.367s.275-.091.275 0c-.183-.366.093-.183.185.092 0 .183-.092.366-.276.733-.184.366-.367.366-.734.366.092 0 .367.185.092.276-.183.275-.733.459-.366 0zm-2.291 2.2c.366-.093.275-.368.641-.368-.458-.183.551-.733.551-.825.092.092.092.184 0 .275.092-.183.367-.55.275-.641.367.091.367.366.367.641-.184-.275-.55.367-.642.459-.184.459-.093.366-.55.366-.276 0-.826 1.283-1.283.734.182-.458.09-.55.64-.641zm-7.698 3.207c-.46-.275.733-.091.825-.183.183-.092.641-.458.824-.367 0-.091-.091-.091-.183-.091 1.375-.275 2.566-1.192 4.032-1.01 0 .55-.458.642-.641 1.01-.183.275-.55-.092-.55.275-.276-.092-.643-.459-.917-.184 0 .092.091.092.091 0 .183.367-.55.642-.458.825-.092-.275-.642-.091-.642-.458-.091.092-.091.183 0 .275-.642-.183-1.1-.458-.825.641-.275-.275-2.108.184-1.832-.458-.184.183-.276.458-.368.642h-.366v.091c-.092 0-.092 0 0-.091-.092-.184-.184-.55-.367-.734.277-.274.919-.274 1.377-.183zm-17.32-70.104c.275.183.275.183.183.458.184 0 .092-.183.367-.183-.183.183.368.733.55.733-.183.092-.183.275-.183.458 0 0-.367-.091-.184-.091-.458-.458-.55-.733-.916-1.008.091-.092.183-.184.183-.367zm-1.008-.46c-.183.093-.091.184.183.368 0 .274-.366-.275-.275.183-.274-.275-.458-.55.092-.55zm-3.482 23.644c0 .276 0 .46-.092.734-.458-.458 0-.367.092-.734zm-4.49 15.395c-.092.092-.092.092-.092.275 0-.183.092-.275.092-.275zm5.223-7.148c0-.091 0-.183.092-.275-.092.093-.275.185-.092.275zm51.318 26.668s0 .092 0 0c0 .092 0 0 0 0zm-47.286 5.864h-.092c0 .092 0 .092.092 0zm-10.813-6.69s0 .092.092.092c-.092 0-.092-.091-.092-.091zm.824-55.898l-.091-.092s.091 0 .091.092zm16.862 50.31c-.092 0-.183 0-.275.091.183-.091-.092-1.65-.458-.916-.092.183.366 1.19.458 1.19 0-.091.092-.183.275-.183zm38.305 4.49c-.091.275.092.458-.091.733.183.092.916.826.55.826.183.183.366.275.64.183.092-.276-.274-.091-.274-.367.092.091.183.091.275-.092-.458-.092-.275-.733-.825-.458.092-.275-.091-.183-.183-.367 0 0 .458.184.366 0-.366.09-.275-.275-.458-.458zm-1.741-1.467c.183 0 .643.458.275.641.642-.183.917.826 1.191.918.092-.092.275-.092.458-.092.092-.183-.274-.275-.183-.367-.183.092-.733-1.009-.916-1.1-.185-.092-.643-1.19-.551-1.65-.183 0-.642.185-.825.093.092.55.458 1.1.55 1.648 0-.091.368.184 0-.091zm-3.574 15.03c.092 0 .275 0 .367-.092-.092-.092-.092-.183 0-.275-.275 0-.367.183-.367.367zm-2.75-.643c0 .184.184.368-.09.46 0 .183.824-.46.09-.46zm17.779 0c0 .276.458.46.642.276.091-.183.275-.276.459-.46-.275.092-.092-.274-.368-.366 0 .367 0 0-.183 0 0 .092 0 .183-.184.183 0-.091.092-.091.092-.183-.183 0-.366 0-.458.183-.275-.458-.825-.183-1.008.092.458.183.825.551 1.008.275zm-16.037-1.282c.092 0 .092 0 .183-.091-.183 0-.275.091-.366.274.275.092 0 .459.091.55.459 0 .734 0 .459-.55-.092-.183-.367-.091-.367-.183zm-.183.183s0 .091 0 0c0 .183 0 .183 0 0zm0 0zm3.024-.091c-.092 0 .368.275.368.275-.092 0-.185 0-.275.091.183.092.183 0 .366 0-.091-.183-.091-.366-.275-.458-.092.092-.184 0-.184.092zm-38.855-1.926c.184.092.46 0 .184.275.458 0 .642 0 .825.367.092.183.55.276.825.55.366.276.734.276 1.1.092.092.459.55.367.825.642.367-.183.733-.092 1.01-.367-.368-.458-2.108-.275-2.108-.55h.275c0-.091-.55 0-.275-.184-.184 0-.643.093-.735-.092h.46c-.46 0-1.192-.366-1.558-.733.091.092.091.184 0 .275-.003-.091-.828-.64-.828-.275zm61.306 1.01c0-.092-.091-.092-.183-.185 0 .093.092.184.183.184zm.55-.826c.092 0 .092 0 .185.091-.276 0-.46.826-.735.734 0 .092.092.092.092.184-.275 0-.092.091-.183.275.275 0 .091-.275.458-.459 0 .092-.275.184-.092.275.092-.183.735-.275.367-.459.55 0 .55-.55.826-.916-.46-.274-.734 0-.918.275zm-2.657.734c.275-.276.826-.551.55-1.01 0 .276-.459.092-.55.367.091 0 .183-.091.275-.091-.275.183-.459.458-.733.55.091 0 .274 0 .366.091-.733-.091-.366.551.092.093zm-23.551-.643c-.184-.091-.092-.183-.184-.183 0 .092-.091.183-.275.183-.091-.183 0-.366-.366-.275.091-.091.091-.183-.092-.275 0 .092.183.917.367 1.008.091-.366.366 0 .458 0 .183-.183-.275-.366.092-.458zm-3.116-.275c.091.092.183.092.275-.091 0 0-.458-.642-.367-.184 0 .184.092 1.009.458.917-.091-.092-.091-.183 0-.275-.458 0-.091 0-.366-.367zm-4.399-1.373c-.183-.276-.275-.185 0-.46-.091 0-.458-.366-.458-.183.092.184.092.367 0 .458.183.276.275.276.458.185zm0 .091c-.366-.184-.091 1.1 0 1.19l.183-.183c-.091.275-.091.459.092.642.275-.55-.367-1.007-.275-1.649zm32.165.917c0-.092.184-.275.275-.55.092-.275 1.1-.917.459-1.375-.184 0-.459.734-.55.459 0 .091-.642 1.009-.092 1.009-.091.183-.275-.092-.458 0 0 .091 0 .183.092.183-.184 0-.184 0-.184.183 0 .184.458.365.458.09zm-61.123-.55c-.183 0-.641-.092-.641.183.275.092.091.184.458 0 0 .184-.183.092-.183.367.183 0 .275 0 .458-.092 0 .092 0 .092.091.184-.091-.184-.183-.367-.275-.459 0-.091 0-.091.092-.183zm36.84-1.467c-.093.091-.093.183 0 .275.182.091.366 1.009.457 1.1.825-.183.092-1.467-.458-1.375zm27.308 1.742c.366-.55.825-1.558.183-1.741-.275-.092-.458.825-.642 1.1 0 .091.367 1.098.459.64zm-33.357-5.5c-.184.368.183.643.366.918-.091 0-.183 0-.183.183.458 0 .458 2.016.825 1.558 0 .092.092.092.092.183-.092.184.091 1.466.458 1.19 0 .367.091.826.55.735.459 0 0-.918-.092-1.191-.275-.642-.092-.55-.55-.275.092-1.01-.366-2.108-.55-3.025 0 .092 0 .092-.091.184-.092-.092-.184-1.01.183-1.01-.275.092-.458-.64-.367-.458-.183-.183-.183-1.1-.641-.458-.092.092-.183.55.092.55-.459.092-.275 1.284-.092.916zm9.164 4.033c.458 0 .458-.275.458-.642.092-.733-.458-.183-.458-.183 0-.092-.093.55.183.733-.092 0-.183.092-.183.092zm-2.291-5.864c-.185.183-.368-.643-.276-.826-.092 0-.55-.916-.642-1.1-.366-1.283-.733-2.199-1.65-3.208.092 1.191.735 2.567 1.192 3.574.092.275.092.916.458 1.008-.366.46.733 1.009.184 1.191.275-.091.366 1.19.734 1.282-.276.093.825 2.016.916 2.384 0-.093 0-.093.092-.185 0 .092 0 .276.091.368.092-.368.734.275.825.367 0 0 .183-.367 0-.367.092.275-.275.092-.275-.092.184 0 .184 0 .092-.184-.092-.641-.642-.733-.733-1.282-.092-1.007-.825-1.832-1.008-2.93zm8.339 4.673c-.183-.091-.183-.55-.183-.55-.092 0-.184-.092-.275-.092.458-.092-.458-.183 0-.458-.55-.184-.642-.825-1.1-.184.367.642.825.918 1.558 1.284zm-5.223-6.323c.183.367.366.917.641.917 0 .091-.092.183-.092.183.092 0 .275.092.367.183-.092 0 .092.551 0 .826.092 0 .46-.092.46 0-.092.092-.185.092-.277.183.185 0 .368 0 .46-.183 0 .275.366.642.55.642-.276.366.183.55 0 .824.183.093.183-.183.366-.183-.092.368.916 1.01.916.826-.091-.092-.091-.092.092 0 0 .091.184 0-.092.091.092.184.185.275.368.459.183-.184.092-.55-.183-.55-.093 0-.093.091-.093.091-.183-.366-.275-.55-.641-.917 0 .183 0 .276-.184.368.092-.368.092-.46-.183-.735.092.092.183.092.275 0-.183.092-.825-1.008-.917-1.1-.366-.457-.825-.825-.642-1.374-.275-.091-.825-.916-.825-1.1 0-.274.092-.917-.366-1.009-.184.275-.092.092-.184 0 0 .184-.366.184-.183 0-.734-.091.367 1.558.458 1.741 0-.091 0-.091-.091-.183zm21.535 6.232c.091-.184.183-.275.183-.46-.092 0-.55.276-.367.46.092-.275.184-.092.184 0zm-25.842-1.925c0-.183-.734-1.009-.275-1.009 0 0-.459-.916-.459-1.19 0-.274 0-.55-.183-.733-.276-.368-.091.091-.46 0 0 .091.277 2.29.552 1.74 0 .643.275 1.191.366 1.741.092.458.184 1.008.642 1.1.55-.184 0-1.1-.183-1.649zm-2.841-.458c-.458.55-.458 1.74.183 2.2.092-.185.092-.368.183-.46-.458-.183-.275-1.373-.366-1.74zm-36.381 1.282l.55.275c0-.183-.642-.458-.55-.275zm22.635 0c.091-.092.183-.092.275-.183 0 0-.275-.184-.367-.184.092.092 0 .459.092.367zm35.74-.732c0-.275-.184-.458-.184-.641-.55.091-.275.458.183.641zm-7.424-1.01c.275.277.733.918 1.192.643 0 0-1.375-1.924-1.467-1.74 0 .183-.183 0-.275 0 0 0 .367.915.55 1.098zm-30.149.552s.092.183.458 0c-.091-.183-.183-.275-.366-.46.091.277.091.368-.092.46zm47.103-.46c0 .46 1.1-1.1.274-1.1l.184-.182c-.092-.092-.092-.092-.184 0 0-.092.092-.184.184-.184-.551 0-.092.917-.458 1.282.366-.09-.275.185 0 .185zm-31.89-1.098c-.092 0-.184 0-.277-.092.276-.183-.183-.824-.366-.916-.642 0 .091 1.373 0 1.832.734 0 .642-.184.642-.824zm14.203-.367c-.091 0-.275.275-.091.275.183-.183.183-.458.091-.641a.716.716 0 0 0-.366.366c.183-.091.275-.091.366 0zm-52.326.184s-.366-1.192-.55-1.375c-.55-.55-.734-1.282-1.1-1.924.091 0 .183 0 .275.091.275.093-.275-.55-.459-.733l-.091-.091.091.091c.275.183 0-.275 0-.183 0-.275.092.183 0-.367-.091-.366-.091-.366-.275-.733-.183-.367-.55-1.009-.366-1.283.092-.183-.458-2.016-.733-2.2 0 0 .091 0 .091.092-.367-.55-.367-2.749-.367-3.299 0-.55.184-.917.184-1.466 0-.275-.093-.641 0-.916.275-.734.183-1.283.55-2.016.092-.183.183-.275.367-.275v-.643c0-.275.091-.641.366-.916.092 0 .183.092.275.183-.275-.183.092-1.65.367-2.016-.367.092-.275-.366-.459.183l-.275.55c-.183.276-.458.643-.183 1.01-.366 0-.458.183-.733.183.275-.092 0 1.558 0 1.65.092.182-.458.916-.55.824.184.825-.459 1.283-.184 2.2.183.55.183.916-.092 1.374-.091.275-.091.641-.091.825-.275 0-.275 0-.092.274.092.092.183.184.275.367-.092-.092-.092-.092-.183 0 .55.092 0 1.558.459 2.016-.276 0 .458 2.658.641 2.566-.183 0-.183.275 0 .092-.091.55.734 1.65.55 1.924-.275.458.184.458.275.733.275.46-.091.46-.183.643.183.275.55.916.916.55.368.274.276 1.1.826 1.466-.366.09.275.914.458.549zm38.122-12.648c-.276.551.825 1.283 1.008 1.741.183.459.458.825.733 1.283.092.184.368 1.282.46 1.1.091-.091-.185-.183 0-.275.091.55 2.015 3.94 1.831 4.032.643 1.282 1.467 2.658 1.925 4.216 0-.092.091-.184.275-.184-.275.184.183.275 0 .184.091-.184.275-.275.459-.184 0-.184 0-.276.183-.276.092-.091-.46-.733-.55-.916-.184-.275-.459-1.375-.734-1.283 0 0-.641-1.465-.733-1.648-.458-.643-.734-1.925-1.283-2.383-.275-.183-.458-1.191-.733-1.191l-.458-.917c-.275-.734-.826-1.283-1.01-2.016-.55-.183-.458-1.191-.916-1.283 0 .092-.366.275-.458.092.458 0 .092-.642 0-.642.642-.274-1.1-1.466-1.191-1.649-.458-.183.458 1.191.458 1.283.46.641.917.366.734.916zm28.317 10.905c-.184.459 0 .734.183 1.101.275-.276.641-.642.275-.826-.275-.091-.367-.733-.733-.55-.092.367.275.092.275.275zm-26.667-.64c-.367.183-.367-.367-.459.275 0 .275-.183.641.092.916.55-.092.55-.824.367-1.191zm-24.193 1.19c.092-.183.183-.275.366-.183 0-.183-.458-.275-.458-.275.184.092-.091.458.092.458zm21.443-.915c.275.458.459-.367.092-.55 0 .092.092.458-.092.458 0-.183-.091-.733.275-.55-.183-.183 0-.459-.275-.55.459.184-.183-.734-.366-.459.183.184 0 .826 0 .918-.275.366.092.366.366.733zm27.309-1.1c.092.184-.092.184-.367.092 0 .183.184.916.459.458.091 0 0-.55-.092-.55zm-24.834.642c0-.092-.092-.184-.184-.275.092 0 .184 0 .184-.183-.642 0-.275.55 0 .458zm28.591-.918c.183-.091.458-.183.642-.275-.092 0-.275-.091-.367-.183.642-.092-.366-.55.092-.641-.184.091-.367 0-.459.091.092-.091.092-.183 0-.275-.183 0-.183.092-.367 0 0 .184-.092.275-.183.458.55.092.55.55.642.825zm-25.659-4.765c.093.367.276.734.276 1.1.092-.09.183-.09.275 0-.366-.09-.091.642 0 .459-.091.183.092.367.367.183-.092.55.916 2.566 1.466 2.383-.184-.642-.368-1.65-.734-2.2-.092-.091-1.282-1.649-1.1-1.649-.275 0-.183-.275-.367-.641-.091-.275-.276-.55-.459-.825-.366-.643-.641-.918-.641 0 .367.275.367.915.917 1.19zm-2.749 1.559v-.367c-.916 0 .183 1.1.275.825-.092-.091-.092-.183 0-.366-.092.091-.183.091-.275 0 .275 0-.092-.092 0-.092zm-41.054-.642c.184-.274.091-1.19-.367-1.1.184.366 0 .734.367 1.1zm-.183-3.391c0-.092-.092-.092-.092-.184 0 .55.092 1.101.092 1.65.367.001.091-1.191 0-1.466.367 0 .274 0 .274-.458v-.917c-.55.276-.274 1.375-.274 1.375zm.091 1.467c0 .092-.366.367-.183.458.091-.183.091.275.183.275.183 0 0-.275 0-.458.092.092.275-.275 0-.275zm38.489-1.192c0-.092-.092-.184-.092-.184v-.274c-.092-.092-.367-.184-.458 0 .183-.092.366.641.55.458zm-28.317-.824c-.092.733.733-.275.183-.733.184.091.459-1.191-.091-1.1.275.182-.092.09-.184.09 0 .55.092 1.468.092 1.743zm26.942-1.925c0 .091-.093.183-.184.274.276-.458-.275-.641-.367-1.1-.733 0-.367.55-.275.367 0 .092-.091.642.183.459-.183.458.643.917.459.55.091.091.184.183.367.274.092-.458.184-.641-.183-.824zm-26.392-1.1c-.092-.55.092-1.1.092-1.557-.275.183-.917 1.466-.55 1.833-.092 0 .458-.275.458-.275zm23.826-1.649c.368.092-.275.092-.458.092 0 .55.641.733.917 1.008 0-.183.092-.183.275-.183 0-.368-.276-1.008-.734-.917zm2.658-.275c-.185.092.091.642.183.642.275 0 .091-.458.366-.367 0-.275-.183-.183 0-.366-.091 0-.274 0-.366.091.091 0-.368-.55-.458-.091.091.275.275-.092.275.091zm-36.564.184c.091-.367.275-.733.458-1.01-.367 0-.092-.274-.367 0-.091.092-.458.643-.091 1.01zm13.196-.825c-.092.092-.275-.276-.367 0 .275-.093.183.183.367.275 0-.183.091-.368.275-.46-.091 0-.367-.09-.459-.09-.091.275.275.09.184.275zm-2.291-1.1c0 .09-.367.824-.55.55.091.182-.092.55.183.642.367-.46 1.283-1.101.367-1.193zm21.718.55c-.275-.092-.091-.092-.275-.092-.458-.092-.366.091-.55.091.367.734.55.367.825.367-.091-.275-.275-.184 0-.367zm-1.191-.641c-.092-.092-.092-.092-.183-.092 0 .182 0 .182.183.092zm0 0s0 .09 0 0c.091 0 .091 0 0 0zm0 .09c-.092.092-.367.275-.367.367.184 0 .367 0 .458.091 0 .092 0 .092-.091.184.641 0 .275-.458 0-.642zm2.108-.64c.55 0 .366.733.917.458.275-.091.183-.366 0-.458-.275-.092-.826-.918-.917-.918 0 .184 0 .275-.184.275.092-.091.092-.183 0-.275-.366 0-.275.184-.091.275-.275-.183.275.643.275.643zm-18.97.183c.092-.091.183-.091.275 0 0-.366.183-.091.367-.275 0-.826-.825.367-.642.275zm-12.92-2.29c-.276 0-.826.55-.46.824-.549-.367-.457 1.01-.915 1.01.183.274-.092.274.091.457 0-.091.642-.55.733-.917-.091 0-.55-.183-.183-.275.092.366.183-.183 0-.275.458.457.641-.641.733-.825zm1.649.915c.091.091.091.183.183.274 0-.183.55-.55.458-1.008-.366.185-.183.642-.641.734zm22.451-.824c-.091 0 .367.55.458.458.275-.275.459.183.734 0-.184-.366-.825-.55-1.192-.458zm6.14 0c-.093.091-.093.183-.184.275.642-.092.184-.092.459-.458-.092 0-.183-.092-.368-.092 0 .092 0 .183-.183.275 0 0-.092-.458-.183-.55-.092-.275-.458-.092-.825-.275 0 .092.092.183.183.275-.091 0-.183 0-.275-.092-.183 0 .184.55.184.55.55.184.734.457 1.192.092zm-9.256-.092c.185 0 1.01-.091 1.192.184l.458-.367c-.275-.643-1.283 0-1.65.183zm-2.474-.275h-.091s.091.092.091 0zm-.275-.091zm.275.091h.368l-.368-.183zm-20.71-.183c.091-.183.275 0 .367-.183 0-.092-.091-.276-.183-.368.09 0 .09.092.183.092-.091-.092.275-.275 0-.367-.091.275 0 .092-.183.092-.184.183.09.366-.093.46 0-.185-.275.366-.091.274zm6.506-1.65c-.091-.091-.183-.091-.275-.183 0 .275-.733.825-.458 1.008-.183.184-.275-.091-.458.184l.183.183c.367-.368.642-.826 1.008-1.191zm-2.932-.366c-.092.183-.55.458-.367.641.092-.183.642-.458.367-.641zm23.368.092c-.092 0-.825.091-.733-.275-.092.275-.367 0-.55.183.091.55.366.183.641.183 0 .549.367 0 .642-.091zm-19.428-.826c0 .091.458-.275.458-.458.092-.184-.641.183-.458.458zm-4.857-1.557c0 .092-.276.458-.367.458.092 0 .642-.458.367-.458zm7.331-.917c-.183.274-.734.55-.734.734.368 0 .46-.367.826-.367-.092-.093.092-.46-.092-.367zm-7.24.55c.093.092.093 0 .184-.091.092-.185-.183 0-.183.091zm.642-.367c-.275 0-.183.184-.458.276 0 .55.367.091.458-.276zm2.841-.092c-.458-.091-1.008.551-.916 1.01.458-.092.55-.734.916-1.01zm3.116-2.932c-.275 0-1.1.641-1.19.917h.366c-.183-.46.275 0 .092-.46.365 0 .915 0 .732-.457zm-1.924-1.007c-.368-.183-.735.183-.551.366-.275 0-.459.092-.459.459.092 0 .184 0 .275-.092 0-.092.551-.642.459-.55 0-.092.367 0 .276-.183zm7.056-1.741c.275 0 .641-.184.366-.459-.091.092-1.1.642-1.009.734.093 0-.091.091-.275.274.46 0 .551-.55.918-.55zm-3.574-.733c-.642-.276-.733.641-1.282.733.457.183 1.007-.459 1.282-.733zm-1.375-1.467c-.184.092-.55.092-.276.367-.275 0-.458.091-.55.275.367.091.092-.092.367.275 0-.092-.367-.092-.183 0 .275.275.642-.275.459-.459.275-.092.458-.55.183-.458zm-.916-7.607c.091-.183.733-.733.458-.825a.507.507 0 0 0 .46-.274c-.277-.092-.093-.184 0-.275-.093-.092-.185-.092-.277-.184 0 .092-.091.184-.183.275.092 0 .092 0 .183.092-.275-.092-.275.275-.458.092.092.183.092.274-.091.458 0-.184-.092-.184-.184-.092.184.092-.091.367-.183.458 0-.458-.642.458-.733.55-.183.367.091.642-.367.825.092.183.184-.092.275.091-.367.092-.734.459-.367.734-.367-.367-.734 1.19 0 1.19-.459.367-.275-.274-.459.55-.091.184-.091.459-.183.643-.183.458-.366.825-.641 1.1-.367.55-.642 1.191-.733 1.833.55-.092 1.1.091 1.648-.092-.092-.092-.183-.183-.183-.275.733 0 .642-2.016.733-2.474.184-.643-.09-.551-.184-1.191 0-.184.46-.642.184-.825-.09 0-.184.092-.184.183.092-.366.092-.733.276-1.1 0 .091 0 .091.091.183a.943.943 0 0 1 .46-.55c0-.183 0-.367.091-.55.276-.274.46-.367.55-.55zm1.65-1.74c-.276-.275-.826.183-.367.275-.092-.092-.092-.183 0-.275.183.275.091-.092.366 0zm2.932-3.85c-.092 0-.092.092-.092.092 0-.092 0-.092.092-.092zm-7.515-19.976zm7.332 19.976s0 .092 0 0c0 .092 0 0 0 0zm-6.69-19.335c.458.092.458-.183.733.184.184.275.734.366 1.01.275.549.641 1.465.641 2.015 1.19.367.367.55.184.825.55.183.276.366.459.55.642 0-.091 0-.091.091-.183.276.183.826.916.918 1.1.091.183.275.183.366.183 0 .183.092.366.184.55.183.275.366.55.641.824.46.55.734 1.467 1.191 1.742.642.366-.091 1.1.275 1.557.092-.091.184-.091.367-.183.092.55.458.55.55 1.191.091.459.183.825.275 1.283.184.825.276 1.65.184 2.2.092 0 .092.091.183.183-.55.183-.367.275-.459 1.1 0 .275-.183 1.1.092 1.283-.184 0-.092 1.008-.367 1.374-.275.367-1.741 1.375-.641 1.741-.642.275-.55 1.1-.825 1.558-.276.367-.183-.091-.368.458-.091.275-.366.367-.55.459.184-.55-.55-.275-.55-.367-.274-.275.184-.733-.183-1.1.55 0 .184-.275.092-.366-.55.366-.367 1.283-.826 1.741 0-.092 0-.092-.09-.183-.277.458-.368 1.191-1.101.824 0 .092 0 .092-.092.184 0-.092.092-.092.092-.184.733-1.374 1.008-2.932 1.466-4.307 0 .092-.092.092-.092 0 .642 0 0-1.19-.091-1.19-.46.09-.643 2.015-.734 2.382-.092.55-.367.916-.092 1.374-.275.275-.367.642-.55.917-.275.183-.275.275-.183.366h.183-.183c-.183.092-.367.733-.367.733-.091.367-.366.55-.55.917.367.091.642.275 1.008.275.092-.184.184-.55.459-.642.275-.091.733-.366 1.1-.366.275-.092.825-.367 1.1-.092.092-.275 1.375-.183 1.1.183.55 0 .826.458 1.374.55-.366 0 .735 1.1.459 1.283-.092.092.459 0 .55.275.275-.641 1.008-.55 1.374-1.1-.183.367.366 0 .642 0-.091-.091 0-.183.459-.183.183 0 .275 0 .458-.092h1.374c.092 0 1.009.275 1.009 0-.092-.091-.092-.091 0-.183.091.092.091.183 0 .275 0 0 .641.183.641.092-.275.183-.183.275.275.183.091 0 .275-.092.368-.092-.092 0-.184-.091-.368-.183.091 0 .275 0 .368-.092.091-.091-.643-.183-.643-.183.643-.275-.916-.366-1.008-.458-.642-.367-.092-.55-.825-.275-.367.183-.826.092-1.191.275-.367.092-1.833.55-2.108.092.092-.642.092-.825-.275-1.467.092.092-.55.733-.733.733-.275 0-1.466-.366-1.1-.824 0 .091 0 .183.091.275.183-.825.641-1.375 1.01-2.108.274-.55.64-.733.732-1.375.275-2.016.642-3.94.733-5.956.275-1.1-.55-2.474-.916-3.483-.092-.274-1.01-1.466-.826-1.649-.091.092-.275-.183-.275-.092v.092c.092 0 .092 0 0 .092v-.092c.092-.55-.275-.916-.458-1.375-.092-.458-.092-.366-.458-.641.091-.183.091-.367 0-.458-.367.55-1.01-.458-1.01-.825-.09.275-1.464-.55-1.19-.825-.274 0-1.649-.733-1.374-1.191-1.008.183-.917-1.1-1.649-1.1.184.092-.274.184-.274.275-.184-.275-.46-.275-.643-.458.092 0 .183-.092.092-.183-.275.183-.367 0-.55-.275-.275.458-1.65.091-1.466-.458-.734.458-.825-.092-1.466.274 0 .274.091.458.64.55zm17.595 23.642c-.092.367.366.275.366.183 0 .184 1.008.734 1.375.459-.092 0-.092.091 0 .091.275-.641-.368-.091-.551-.458 0 0 .642 0 .55.092.276-.184-1.1-.092-.917-.458-.366 0-.824 0-1.19-.092 0 .275.275.183.367.183zM539.82 47.668v.183c.091-.092.091-.183 0-.183zm18.053 24.284s-.092 0 0 0c-.092 0 0 0 0 0zm-4.674-.183s0 .091 0 0c.092 0 .092 0 0 0zm-1.374-2.566c.091.183 0 .275.091.641.367 0 0-.917-.091-.641zm7.972 10.446s-.091 0 0 0c-.093-.092-.093 0-.093 0zm-.55-.092c0 .092 0 .092.184.092 0 0-.184.183-.275.183.091 0 .366-.183.459-.275zm.184-.092s.184.092.274.184c.184-.184.184-.275-.274-.184zM545.502 78l.275-.55c-.091 0-.916-.092-.458.183-.091 0-.55.092-.366-.184-.367.368-.642.551-.55 1.101.183-.183 1.191-.733 1.1-.55zm-7.972.367c0-.184.366-.55.183-.642 0 .183-.55.367-.183.642zm22.818-1.01c-.092 0-.458.368-.458.46.091-.092.091-.184 0-.276-.092.276-.185 0 0 .367-.368-.091-.46 0-.368.367.092 0 .183-.092.368-.092V78s.183.092.275.092c0-.092-.092-.184-.184-.275.275 0 .367 0 .275.275.275 0 .275-.184.459.091-.184-.366.183-.734-.367-.825zm-12.463-3.024c-.367-.458-1.557.734-1.832.184-.184.366-.276.733-.734.917 0-.091 0-.091.092-.091-.825.275.366-1.925.826-1.833.55.091 2.107-.367 2.107-1.191-.184 0-.642-.092-.734.183 0-.458-.366.275-.275-.183-.275.274-.825.824-1.19.916.183 0 .275 0 .366.183-.183-.183-.274 0-.458.092 0-.275-.276-.092-.367 0 0-.092.091-.183.091-.367-.55-.091-.733.642-.825.458-.091.275.092.184.184.367-.367 0-.917 1.191-.458 1.283a.197.197 0 0 0-.184.183c0 .092.275-.183.367.184-.275.091-.183.55-.458.641-.184.092-.735.55-.275.916.55-.458 1.008-.824 1.557-1.19-.092 0-.092 0-.184-.091.734 0 .643-.275 1.192-.642.184-.369 1.559-.644 1.192-.919zm12.738.367c-.183.275-.642-.367-.733-.183.366.183-.092.183-.185.275.643.734-.824.826-1.008 1.374.275 0 .367 0 .275.275.643 0 .826-.275 1.467-.275.55-.09.459-1.007.184-1.466zm-11.455 1.192c-.092.092-.183 0-.275 0 0 .184-.183.275.092.367l.458-.458c-.367-.092-.183 0-.275.091zm7.698-.366c.55-.183 1.74-.367 1.924-.642.458-.733-.641-.458-1.008-.458-.275 0-1.01.642-1.1 0-.092.183-.184.092-.276.183.276.459-.548 1.283.46.917zm-.733-2.017c.091 0 .458-.092.458.091-.184 0-1.282-.183-.733-.366-.367-.092-.918.183-1.192-.092.092 0 .368.092.459 0-.091.092-.825-.091-.734-.366-.183.183-.824.366-.641.641-.275-.092-1.283.092-.918.458-.274-.091-.366.275-.458 0 0 .092 0 .184-.091.275.091 0 .183 0 .183.092-.092.091-.183.091-.183 0 0 0 .275.183.55-.092.184-.183.642-.091.825-.091 0-.367.459-.459.825-.55a.7.7 0 0 1 .458.183c.276.367-.366.275-.55.367-.091 0-.458.55-.458.55.092.091.55.183.642 0-.092-.184-.184.091-.275-.092.917 0 1.74-.367 2.566-.458.091-.183-.092-1.19-.733-.55zm-15.487-3.483c-.092.367-.275.734-.184 1.192 0 .091.367-.642.275-.458.183-.275.092-.184.183-.367-.366.001 0-.275-.274-.367zm.458-2.656c0-.092.091-.183.184-.183-.46 0-.46.824-.368 1.191.184 0 .275-.092.368-.275-.184-.092-.093-.183 0-.366.09-.185.09-.367-.184-.367zm.091-3.392c-.275-.183-.366.458-.458.642.183.183.367.641.275.733.642 0 .642-1.1.183-1.375zm5.224-2.84c-.275.458.183 2.474 0 2.749.091 0 .091.275.091.275.184.183.459-.825.55-1.008-.183-.184-.183-.55-.366-.734.458.184-.092-.916-.092-1.1-.183.185-.092.002-.183-.183zm0 2.84s0-.09 0 0c0-.09 0-.09 0 0zm-6.873-3.207c-.092.092-.092.183-.183.275 0 0 .733 1.283 1.008 1.466-.092-.733-.367-1.19-.825-1.741zm8.706.916c.184-.091.276.275.367.092-.091-.092-.091-.183-.091-.367-.276.001-.368.093-.276.275zm-3.116-.182c0 .092 0 .092.091.183 0-.183 0-.733-.275-.733-.183 0-.274-.183-.274.184-.092.183.274.64.458.366zm3.024-1.008c-.367 0-.367 0-.458-.366-.092.091-.184.183-.275.366.091 0 .55.183.458.183.092-.092.183-.092.275-.183zm-.55-1.742c.367.366-.366.916.275 1.191.092-.183.092-.458.092-.733.091-.09-.275-.733-.367-.458zm.367 1.192zm-.092.184c0-.092.092-.092.092-.184-.184 0-.184 0-.092.184zm-3.299-.735c-.275-.091-.367-.183-.183-.275-.458.092-.275.275-.275.367 0 .092-.092.092-.092.183.275.092.458 0 .55-.275zm-1.008-.916c0 .183.092.733.276.733.183-.275-.276-.367 0-.55-.184 0-.276-.091-.276-.183zm3.666-.64c-.184-.092 0 .55 0 .55 0-.276.458.183.458.183-.092-.185-.275-.733-.458-.733zm.824-1.376v-.642c0-.091.092-.091.092-.183-.55.001-.458.825-.092.825zm-3.207-1.923h.183zm1.191 1.831c0-.366-.367-1.191-.459-1.191-.092 0-.458.092-.458 0-.092-.183.366 0 .366-.183 0-.275-.733-.367-.733-.459h.092-.275c.092-.183.092-.274-.092-.366 0 .366-.458.092-.275-.183-.275.091-.458-.55-.641.091.183 0 .275.092.458 0 .092.367.55.55.458 1.008.275-.091.367.092.642.275.091.092.734.183.366.55.46.001.001.458.551.458zm.275-2.566c.092 0 .092-.091.183-.091-.183-.367-.458-.459-.642-.733-.09.276.276.824.46.824zm-17.961-.182c0-.092-.367-.366 0-.458 0 .092 0 .092.091.183 0-.091 1.009-1.558.367-1.466-.183-.092-1.008 1.1-.55 1.283-.091.183-.183.458-.183.641zm4.765-.458c0-.183-.183.458-.091.458.274 0 .458-.55.274-.641 0 .091 0 .183-.183.183zm8.89-.276c.274-.183-.184-.55-.276-.458 0 0 .183.366.275.458zm-10.906-.824c.092 0 .183 0 .275.092 0-.458.641-.275.733-.642-.183-.092-1.008.274-1.008.55zm6.506-.092c.367-.275.642.458.642-.367-.092.092-.733.092-.642.367zm6.232-.367c.275.092 0 .183.183.367.733-.184-1.283-1.925-1.558-1.008.092 0 .184.091.275.183.275-.366 1.008 1.1 1.1.458zm-13.93-.732c.277-.275.46 0 .643-.367.092-.183.275-.458.55-.458 0-.091-.091-.183-.183-.275.366.092.55-.275.825-.458-.092 0-.092.367 0 .183.734-.641 1.832-1.008 2.749-1.1.642-.09.917-.458 1.74-.274-.182-.184.276-.917-.549-.55-.458.183-.641.092-1.1.275-.642.183-1.466.183-2.107.366-.643.184-.46.459-.734.825.183-.275-1.008.092-.459.367-.824 0-1.1.55-1.74.916.182.458-.734.458-.367.917-.092-.184.275 0 .733-.367zm5.866-.733c.183 0 .824-.275.824-.458-.366-.093-1.1.458-.824.458zm3.115-.46c-.366-.183-1.008-.274-.824.275.183-.366.916.459.824-.274zm56.358 75.97c0 .734 1.558-.092 1.375-.275 0 0 1.1.091.458-.092.092 0 .275-.183.184-.275-.184 0-.642-.092-.642.092.183.183.275-.092.367.183-.367.091-.275-.183-.459-.275-.091.092-.275.183-.367.183-.275 0-.733 0-.917.092.092.091.092.183 0 .275 0 0-.458-.092-.458.091-.182 0 .46.092.46 0zm-20.71-1.282c0 .458-.183.458 0 .824.458-.091.458-.55.367-.824zm-6.415-1.468c-.091-.183-.183-.733-.183-.825-.55 0-.183.642-.183.642-.092.275.275.183.366.183zm35.19-6.414c.091-.55.183-1.009-.093-1.466-.457.275-.365 1.466.093 1.466zm-55.442-4.123c.275-.368-.367-1.191-.733-.918.092.367.458.643.733.918zm24.01-2.016c.366-.458.55-1.192.091-1.558-.733-.55-.183 1.374-.092 1.558zm1.924-2.474c0-.275 0-.092.183-.092.092-.183.092-.275.183-.46-.091 0-.458-.183-.458-.274-.091.366-.458.642.092.826zm-9.805-11.915c-.092-.091-.642-.641-1.009-.458-.091 0 .092.367.275.458.275.185.642.276.825.551 0-.183.55-.183-.091-.55zm-28.775-3.94c-.55-.09-.275.55-.458.826.275-.001.916-.642.458-.825zm11.638-37.847c-.092.366 0 .458.092.733.091 0 .091 0 .183-.092 0 0 0 .275.091.275 0-.091 0-.091.092-.183 0 .092.367.916.458.458-.275-.55-.458-.915-.916-1.191zm-10.264-6.322c.918.183 1.833 0 2.659.275.366-.734-2.475-1.01-2.659-.275z" fill="#dfd9a6"/></svg>