<?xml version="1.0" encoding="UTF-8" standalone="no"?>
<svg xmlns="http://www.w3.org/2000/svg" xml:space="preserve" height="120.73" viewBox="0 0 354.44 120.7344" width="354.44" version="1.1"><defs><clipPath id="clipPath20" clipPathUnits="userSpaceOnUse"><path d="m0 90.551h265.83v-90.551h-265.83z"/></clipPath><clipPath id="clipPath34" clipPathUnits="userSpaceOnUse"><path d="m0 90.551h265.83v-90.551h-265.83z"/></clipPath></defs><g transform="matrix(1.3333 0 0 -1.3333 0 120.73)"><g clip-path="url(#clipPath20)"><path d="m89.555 1h-88.555v88.551h88.555z" stroke="#fff" stroke-width="2" fill="none"/></g><g transform="translate(55.928 38.185)"><path d="m0 0-20.966 25.693h-13.067v-4.806h3.403v-27.549h-3.403v-4.802h16.199v4.802h-3.47v20.337l20.56-25.139h13.476v4.802h-3.405v27.549h3.405v4.806h-16.135v-4.806h3.403zm-2.925-13.771-15.314 18.678v-9.259h3.536v-9.419h-22.462v9.419h3.403v22.935h-3.403v9.369h18.445l15.592-19.085v9.716h-3.405v9.369h22.399v-9.369h-3.408v-22.935h3.408v-9.419z" fill="#fff"/></g><g clip-path="url(#clipPath34)"><g transform="translate(101.67 51.363)"><path d="m0 0v-6.4c0-2.4 1.072-3.424 2.513-3.424 1.584 0 2.623 1.057 2.623 3.424v6.4h1.408v-6.304c0-3.312-1.744-4.655-4.08-4.655-2.208 0-3.871 1.247-3.871 4.607v6.352z" fill="#fff"/></g><g transform="translate(110.17 46.227)"><path d="m0 0c0 0.816-0.017 1.456-0.064 2.096h1.248l0.08-1.264h0.032c0.384 0.72 1.28 1.44 2.559 1.44 1.073 0 2.737-0.64 2.737-3.296v-4.624h-1.408v4.464c0 1.248-0.464 2.304-1.792 2.304-0.913 0-1.632-0.656-1.888-1.44-0.065-0.176-0.096-0.432-0.096-0.656v-4.672h-1.408z" fill="#fff"/></g><path d="m118.65 48.323h1.408v-7.744h-1.408zm0.672 1.424c-0.527 0-0.88 0.416-0.88 0.912s0.369 0.896 0.913 0.896c0.543 0 0.896-0.4 0.896-0.896s-0.353-0.912-0.912-0.912z" fill="#fff"/><g transform="translate(122.54 48.323)"><path d="m0 0 1.521-4.336c0.255-0.72 0.463-1.36 0.624-2h0.047c0.176 0.64 0.4 1.28 0.657 2l1.504 4.336h1.471l-3.04-7.744h-1.344l-2.944 7.744z" fill="#fff"/></g><g transform="translate(134.02 45.219)"><path d="m0 0c0.016 0.88-0.368 2.288-1.936 2.288-1.44 0-2.047-1.312-2.16-2.288zm-4.112-1.008c0.032-1.905 1.232-2.688 2.64-2.688 1.008 0 1.632 0.176 2.145 0.384l0.256-0.992c-0.497-0.224-1.361-0.496-2.593-0.496-2.368 0-3.808 1.584-3.808 3.904 0 2.352 1.392 4.192 3.648 4.192 2.528 0 3.184-2.224 3.184-3.648 0-0.288-0.015-0.512-0.047-0.672z" fill="#fff"/></g><g transform="translate(136.75 45.907)"><path d="m0 0c0 0.912-0.017 1.696-0.063 2.416h1.231l0.063-1.52h0.049c0.352 1.04 1.216 1.696 2.16 1.696 0.144 0 0.256-0.016 0.383-0.048v-1.312c-0.159 0.016-0.302 0.032-0.496 0.032-0.991 0-1.695-0.752-1.887-1.792-0.033-0.208-0.048-0.432-0.048-0.672v-4.128h-1.409z" fill="#fff"/></g><g transform="translate(141.37 42.003)"><path d="m0 0c0.432-0.256 1.168-0.544 1.872-0.544 1.008 0 1.487 0.496 1.487 1.152 0 0.672-0.399 1.039-1.423 1.424-1.409 0.512-2.064 1.264-2.064 2.192 0 1.248 1.024 2.272 2.672 2.272 0.784 0 1.472-0.208 1.888-0.48l-0.336-1.008c-0.304 0.176-0.864 0.448-1.584 0.448-0.832 0-1.28-0.48-1.28-1.056 0-0.656 0.448-0.944 1.456-1.328 1.328-0.496 2.032-1.168 2.032-2.336 0-1.376-1.072-2.336-2.88-2.336-0.848 0-1.632 0.224-2.176 0.544z" fill="#fff"/></g><path d="m147.5 48.323h1.408v-7.744h-1.408zm0.672 1.424c-0.528 0-0.88 0.416-0.88 0.912s0.368 0.896 0.912 0.896 0.897-0.4 0.897-0.896-0.353-0.912-0.912-0.912z" fill="#fff"/><g transform="translate(152.54 50.179)"><path d="m0 0v-1.856h2.017v-1.072h-2.017v-4.176c0-0.96 0.272-1.504 1.056-1.504 0.384 0 0.608 0.032 0.816 0.096l0.065-1.071c-0.273-0.097-0.706-0.193-1.249-0.193-0.656 0-1.183 0.224-1.52 0.592-0.384 0.433-0.544 1.12-0.544 2.032v4.224h-1.199v1.072h1.199v1.424z" fill="#fff"/></g><g transform="translate(156.39 48.323)"><path d="m0 0 1.68-4.576c0.192-0.513 0.384-1.12 0.512-1.584h0.033c0.143 0.464 0.303 1.056 0.496 1.616l1.535 4.544h1.488l-2.111-5.521c-1.009-2.656-1.697-4.015-2.656-4.863-0.705-0.592-1.377-0.832-1.729-0.896l-0.352 1.183c0.352 0.097 0.817 0.321 1.233 0.689 0.383 0.304 0.848 0.848 1.184 1.567 0.064 0.145 0.111 0.24 0.111 0.337 0 0.079-0.031 0.192-0.111 0.352l-2.848 7.152z" fill="#fff"/></g><g transform="translate(169.21 41.459)"><path d="m0 0c1.344 0 2.352 1.264 2.352 3.024 0 1.312-0.657 2.96-2.321 2.96-1.647 0-2.367-1.536-2.367-3.008 0-1.696 0.96-2.976 2.32-2.976zm-0.049-1.056c-2.08 0-3.711 1.536-3.711 3.984 0 2.592 1.711 4.112 3.84 4.112 2.224 0 3.728-1.616 3.728-3.968 0-2.881-2-4.128-3.84-4.128z" fill="#fff"/></g><g transform="translate(174.52 40.579)"><path d="m0 0v6.672h-1.072v1.072h1.072v0.368c0 1.088 0.256 2.08 0.912 2.704 0.527 0.512 1.232 0.72 1.871 0.72 0.512 0 0.928-0.112 1.2-0.224l-0.175-1.088c-0.224 0.096-0.496 0.176-0.912 0.176-1.185 0-1.504-1.056-1.504-2.24v-0.416h1.872v-1.072h-1.856v-6.672z" fill="#fff"/></g><g transform="translate(181.7 40.579)"><path d="m0 0v10.784h1.536l3.44-5.456c0.785-1.264 1.423-2.384 1.92-3.504l0.048 0.016c-0.129 1.44-0.16 2.752-0.16 4.416v4.528h1.313v-10.784h-1.409l-3.423 5.472c-0.752 1.2-1.473 2.432-2 3.6l-0.049-0.016c0.08-1.36 0.096-2.656 0.096-4.448v-4.608z" fill="#fff"/></g><g transform="translate(196.68 45.219)"><path d="m0 0c0.016 0.88-0.369 2.288-1.938 2.288-1.439 0-2.046-1.312-2.159-2.288zm-4.113-1.008c0.033-1.905 1.232-2.688 2.64-2.688 1.008 0 1.633 0.176 2.145 0.384l0.256-0.992c-0.496-0.224-1.362-0.496-2.592-0.496-2.369 0-3.809 1.584-3.809 3.904 0 2.352 1.393 4.192 3.649 4.192 2.527 0 3.183-2.224 3.183-3.648 0-0.288-0.015-0.512-0.048-0.672z" fill="#fff"/></g><g transform="translate(199.89 48.323)"><path d="m0 0 1.521-4.336c0.256-0.72 0.463-1.36 0.624-2h0.048c0.176 0.64 0.399 1.28 0.655 2l1.504 4.336h1.472l-3.039-7.744h-1.344l-2.945 7.744z" fill="#fff"/></g><g transform="translate(210.5 44.531)"><path d="m0 0c-1.535 0.032-3.279-0.24-3.279-1.744 0-0.928 0.607-1.344 1.312-1.344 1.024 0 1.68 0.64 1.903 1.296 0.048 0.144 0.064 0.304 0.064 0.448zm1.377-2.096c0-0.672 0.031-1.328 0.111-1.856h-1.263l-0.129 0.975h-0.047c-0.416-0.607-1.264-1.151-2.369-1.151-1.567 0-2.368 1.105-2.368 2.224 0 1.872 1.665 2.896 4.657 2.88v0.16c0 0.64-0.176 1.808-1.76 1.792-0.736 0-1.488-0.208-2.033-0.576l-0.321 0.944c0.641 0.4 1.584 0.672 2.561 0.672 2.385 0 2.961-1.616 2.961-3.168z" fill="#fff"/></g><g transform="translate(219.01 45.171)"><path d="m0 0c0 0.192-0.016 0.416-0.064 0.608-0.207 0.88-0.975 1.616-2.032 1.616-1.457 0-2.32-1.28-2.32-2.976 0-1.584 0.785-2.88 2.289-2.88 0.943 0 1.807 0.641 2.063 1.68 0.048 0.192 0.064 0.385 0.064 0.608zm1.408 6.768v-9.36c0-0.688 0.016-1.471 0.065-2h-1.264l-0.064 1.344h-0.034c-0.431-0.864-1.359-1.52-2.623-1.52-1.871 0-3.328 1.584-3.328 3.936-0.015 2.592 1.6 4.16 3.473 4.16 1.199 0 2-0.56 2.336-1.168h0.031v4.608z" fill="#fff"/></g><g transform="translate(226.44 44.531)"><path d="m0 0c-1.537 0.032-3.281-0.24-3.281-1.744 0-0.928 0.609-1.344 1.312-1.344 1.024 0 1.68 0.64 1.905 1.296 0.046 0.144 0.064 0.304 0.064 0.448zm1.375-2.096c0-0.672 0.033-1.328 0.113-1.856h-1.265l-0.127 0.975h-0.049c-0.416-0.607-1.264-1.151-2.367-1.151-1.569 0-2.369 1.105-2.369 2.224 0 1.872 1.664 2.896 4.656 2.88v0.16c0 0.64-0.176 1.808-1.76 1.792-0.736 0-1.488-0.208-2.031-0.576l-0.321 0.944c0.641 0.4 1.584 0.672 2.561 0.672 2.383 0 2.959-1.616 2.959-3.168z" fill="#fff"/></g><g transform="translate(228.76 38.596)"><path d="m0 0c0.354 0.959 0.785 2.672 0.961 3.84l1.568 0.16c-0.384-1.36-1.088-3.137-1.537-3.889z" fill="#fff"/></g><g transform="translate(235.91 46.307)"><path d="m0 0h1.424c1.488 0 2.431 0.816 2.431 2.048 0 1.392-1.007 2-2.478 2-0.674 0-1.137-0.064-1.377-0.128zm-1.393 4.896c0.705 0.144 1.729 0.24 2.672 0.24 1.489 0 2.465-0.288 3.137-0.896 0.527-0.464 0.848-1.2 0.848-2.048 0-1.408-0.912-2.352-2.032-2.736v-0.048c0.817-0.288 1.313-1.056 1.584-2.176 0.352-1.504 0.608-2.544 0.817-2.96h-1.442c-0.175 0.304-0.416 1.231-0.703 2.576-0.32 1.488-0.912 2.048-2.175 2.096h-1.313v-4.672h-1.393z" fill="#fff"/></g><g transform="translate(247.64 45.219)"><path d="m0 0c0.016 0.88-0.367 2.288-1.936 2.288-1.439 0-2.048-1.312-2.16-2.288zm-4.111-1.008c0.031-1.905 1.232-2.688 2.64-2.688 1.008 0 1.631 0.176 2.143 0.384l0.256-0.992c-0.496-0.224-1.36-0.496-2.592-0.496-2.367 0-3.807 1.584-3.807 3.904 0 2.352 1.391 4.192 3.647 4.192 2.529 0 3.183-2.224 3.183-3.648 0-0.288-0.015-0.512-0.046-0.672z" fill="#fff"/></g><g transform="translate(250.34 46.227)"><path d="m0 0c0 0.816-0.016 1.456-0.064 2.096h1.248l0.08-1.264h0.031c0.385 0.72 1.281 1.44 2.56 1.44 1.073 0 2.737-0.64 2.737-3.296v-4.624h-1.408v4.464c0 1.248-0.465 2.304-1.793 2.304-0.911 0-1.631-0.656-1.887-1.44-0.065-0.176-0.096-0.432-0.096-0.656v-4.672h-1.408z" fill="#fff"/></g><g transform="translate(262.02 41.459)"><path d="m0 0c1.344 0 2.352 1.264 2.352 3.024 0 1.312-0.657 2.96-2.321 2.96-1.648 0-2.367-1.536-2.367-3.008 0-1.696 0.959-2.976 2.318-2.976zm-0.049-1.056c-2.08 0-3.711 1.536-3.711 3.984 0 2.592 1.711 4.112 3.84 4.112 2.223 0 3.727-1.616 3.727-3.968 0-2.881-2-4.128-3.84-4.128z" fill="#fff"/></g></g></g></svg>
